<?xml version="1.0" encoding="utf-8"?>
<!-- Generator: Adobe Illustrator 20.1.0, SVG Export Plug-In . SVG Version: 6.00 Build 0)  -->
<svg version="1.1" id="Layer_1" xmlns="http://www.w3.org/2000/svg" xmlns:xlink="http://www.w3.org/1999/xlink" x="0px" y="0px"
	 viewBox="0 0 902 861.2" style="enable-background:new 0 0 902 861.2;" xml:space="preserve">
<style type="text/css">
	.st0{display:none;fill:#FFFFFF;}
	.st1{display:none;}
	.st2{display:inline;}
	.st3{fill:#B53204;}
	.st4{fill:#751B00;}
	.st5{fill:#C53C02;}
	.st6{fill:#FFFFFF;}
	.st7{fill:#040202;}
	.st8{fill:#040202;stroke:#FFFFFF;stroke-width:1.3742;stroke-linejoin:round;stroke-miterlimit:10;}
</style>
<g id="Слой_2">
</g>
<g id="Layer_1_1_">
	<rect x="-181.5" y="-24.5" class="st0" width="1280" height="800"/>
	<g id="minimum" class="st1">
		<path class="st2" d="M419.1,341.2c0-0.2,0.2-0.4,0.4-0.4h2c0.2,0,0.4,0.2,0.4,0.4v11h5.5c0.2,0,0.4,0.2,0.4,0.4v1.6
			c0,0.2-0.2,0.4-0.4,0.4h-7.8c-0.2,0-0.4-0.2-0.4-0.4v-13H419.1z M439.8,340.6c4.3,0,7.7,3.2,7.7,7.1s-3.4,7.1-7.7,7.1
			c-4.3,0-7.7-3.1-7.7-7.1C432.1,343.8,435.5,340.6,439.8,340.6z M439.8,352.2c2.7,0,4.9-2,4.9-4.5s-2.2-4.5-4.9-4.5
			c-2.7,0-4.9,2.1-4.9,4.5C434.9,350.2,437.1,352.2,439.8,352.2z M460.3,340.6c2.2,0,3.7,0.6,5.2,1.8c0.2,0.2,0.2,0.4,0,0.6
			l-1.3,1.2c-0.2,0.2-0.4,0.2-0.5,0c-0.9-0.7-2.1-1.2-3.3-1.2c-2.7,0-4.8,2.1-4.8,4.6s2.1,4.5,4.8,4.5c1.3,0,2.4-0.5,3.3-1.1
			c0.2-0.1,0.4-0.1,0.5,0l1.3,1.3c0.2,0.1,0.1,0.4,0,0.5c-1.5,1.3-3.3,1.9-5.2,1.9c-4.3,0-7.7-3.1-7.7-7.1
			C452.6,343.8,456,340.6,460.3,340.6z M469.8,354.1l6.7-13.2c0.1-0.1,0.2-0.2,0.4-0.2h0.2c0.2,0,0.3,0.1,0.4,0.2l6.6,13.2
			c0.1,0.3,0,0.5-0.4,0.5h-1.9c-0.3,0-0.5-0.1-0.6-0.4l-1-2.1h-6.4l-1,2.1c-0.1,0.2-0.3,0.4-0.6,0.4h-2
			C469.8,354.6,469.7,354.3,469.8,354.1z M479,349.9l-2.1-4.3h-0.1l-2.1,4.3H479z M489.4,341.2c0-0.2,0.2-0.4,0.4-0.4h2
			c0.2,0,0.4,0.2,0.4,0.4v11h5.5c0.2,0,0.4,0.2,0.4,0.4v1.6c0,0.2-0.2,0.4-0.4,0.4h-7.8c-0.2,0-0.4-0.2-0.4-0.4v-13H489.4z"/>
		<g class="st2">
			<path d="M440.6,413.1h-5.8c-0.2,0-0.4,0.2-0.4,0.4v14.8c0,0.2,0.2,0.4,0.4,0.4h5.8c4.7,0,8.5-3.5,8.5-7.8
				C449.2,416.6,445.3,413.1,440.6,413.1z M440.4,426h-2.8v-10.2h2.8c3.2,0,5.5,2.2,5.5,5.1C445.8,423.8,443.5,426,440.4,426z"/>
			<path d="M467.2,428.1l-7.5-15c-0.1-0.1-0.2-0.2-0.4-0.2h-0.2c-0.2,0-0.3,0.1-0.4,0.2l-7.5,15c-0.1,0.3,0,0.6,0.4,0.6h2.1
				c0.4,0,0.6-0.2,0.7-0.4l1.2-2.4h7.3l1.2,2.4c0.2,0.3,0.3,0.4,0.7,0.4h2.1C467.1,428.7,467.3,428.4,467.2,428.1z M456.7,423.3
				l2.4-4.9h0.1l2.4,4.9H456.7z"/>
			<g>
				<path d="M473.8,421.2l-5.5-7.5c-0.2-0.3,0-0.6,0.4-0.6h2.5c0.2,0,0.3,0.1,0.4,0.2l3.9,5.1l3.9-5.1c0.1-0.1,0.2-0.2,0.4-0.2h2.5
					c0.4,0,0.6,0.4,0.4,0.6l-5.6,7.4v7.1c0,0.2-0.2,0.4-0.5,0.4h-2.4c-0.3,0-0.5-0.2-0.5-0.4v-7H473.8z"/>
			</g>
		</g>
		<g class="st2">
			<g>
				<g>
					<path d="M416.8,383.6c0-1.2,0-2.4,0-3.7l0,0l0,0v-0.1l0,0l0,0c0-1.7,0-3.4,0-5.1l0,0c0-0.1,0-0.2-0.1-0.2c0.1,0,0.1,0,0.1-0.1
						l0,0c0-0.9,0-1.8,0-2.8v-0.1l0,0c0-0.2,0-0.4,0-0.6l0,0l0,0c0-1.2,0-2.5,0-3.7l0,0l0,0c0-0.2,0-0.3,0-0.5c0-0.1,0-0.2-0.1-0.2
						c0,0,0,0,0.1,0l0,0c0-0.7,0-1.4,0-2.2c-0.1,0-0.1,0-0.2,0v0.1c0,0-0.1,0-0.1-0.1c-0.4,0-0.8,0-1.3,0c0,0.1,0,0.1,0,0.2h-0.1
						c0-0.1-0.1-0.2,0.1-0.2c-0.2,0-0.5,0-0.7,0c0,0-0.1,0.1,0,0.1c0,0,0,0.1-0.1,0.1c0,0,0-0.1,0.1-0.1l0,0c0,0,0,0,0,0.1
						c0,0,0,0,0-0.1c-0.5,0-1,0-1.4,0c0,0,0.1,0.1,0,0.1c0,0.1,0.1,0.1,0.1,0.2h-0.1c0.1,0,0.1-0.2,0-0.2c0-0.1,0.1,0,0.1,0
						c0-0.1,0-0.1-0.1-0.1c-0.5,0-0.9,0-1.4,0c0,0-0.1,0,0,0.1c0,0,0,0,0-0.1c-0.3,0-0.7,0-1,0c0,0,0,0,0,0.1l0,0l0,0
						c-0.2,0-0.5,0-0.7,0l0,0l0,0c-0.2,0-0.4,0-0.6,0v0.1c-0.1,0-0.1,0-0.2-0.1l0,0c-0.4,0-0.9,0-1.3,0c0,0.1,0,0.1,0,0.2
						c-0.1,0-0.1,0-0.2,0c0-0.1,0-0.1,0-0.2c-0.1,0-0.1,0-0.2,0c0,0.2,0,0.4,0,0.6l0,0l0,0c0,0.2,0,0.4,0,0.6c0,0,0.1,0.1,0.1,0
						c0,0,0,0-0.1,0c0,0.2,0,0.3,0,0.5c0.1,0.1,0.1,0.2,0,0.3l0,0c0,0.9,0,1.8,0,2.7l0,0l0,0c0,0.5,0,0.9,0,1.4c0,0,0,0,0.1,0v0.1
						c0,0-0.1,0-0.1-0.1c0,0.2,0,0.5,0,0.7v0.1c0,0.2,0,0.4,0,0.6c0,0.1,0,0.2,0,0.2l0,0c0,0.2,0,0.4,0,0.5c0.1,0.1,0.1,0.2,0.1,0.3
						h-0.1c0,1.7,0,3.4,0,5.1l0,0c0,0.1,0,0.2,0,0.2l0,0c0,0.2,0,0.3,0,0.5l0,0c0,0.1,0.1,0.2,0.1,0.3h-0.1c0,0.1,0,0.3,0,0.4
						c-0.3,0-0.7,0-1,0.1c0,0.1-0.1,0-0.2,0l0,0c-0.2,0-0.4,0-0.6,0c0,0-0.1,0.1-0.2,0l0,0c-0.1,0-0.2,0-0.3,0c0,0.1,0.1,0.3,0,0.4
						c-0.1-0.1-0.1-0.3-0.1-0.4c-0.1,0-0.2,0-0.3,0c0,0,0,0-0.1,0s-0.2,0-0.4,0c0.1,0,0.1,0.3,0.1,0.4l0,0c0,0,0,0.1-0.1,0.1
						c-0.1-0.2,0-0.3,0-0.4c-0.1,0-0.2,0-0.3,0h-0.1c-0.1,0-0.2,0-0.3,0c0.1,0.1,0.1,0.2,0.1,0.4c0,0-0.1,0-0.2,0c0-0.2,0-0.3,0-0.4
						c-0.2,0-0.4,0-0.6,0c0,0.1,0,0.3,0,0.4c-0.2,0-0.2-0.2-0.1-0.4c-0.2,0-0.4,0-0.6,0c0,0.1,0,0.2,0,0.4c-0.2,0-0.2-0.4-0.1-0.3
						l0,0c-0.2,0-0.5,0-0.7,0.1l0,0l0,0c-0.2,0-0.5,0-0.7,0.1c0.1,0.1,0.1,0.3,0.1,0.4c-0.1,0-0.1-0.2-0.1-0.3c-0.2,0-0.5,0-0.7,0.1
						c0.1,0.1,0.1,0.2,0.1,0.3H400c0-0.1,0-0.2,0-0.3c-0.2,0-0.4,0-0.6,0c0,0.1,0,0.1,0.1,0.2c0,0.1-0.1,0.1-0.1,0.2
						c-0.1,0-0.1-0.1-0.1,0c0-0.1,0-0.2,0-0.3l0,0c-0.2,0-0.4,0-0.7,0c0,0.1,0,0.2,0.1,0.3h-0.1c0-0.1,0-0.2,0-0.3
						c-0.2,0-0.5,0-0.7,0.1c0,0.1,0,0.2,0,0.2c-0.1,0-0.1-0.2,0-0.2c0,0,0,0-0.1,0c-0.2,0-0.4,0-0.6,0c0,0.1,0,0.2,0,0.2
						c-0.1,0-0.1-0.1-0.1-0.2c-0.2,0-0.4,0-0.6,0c0-1.2,0-2.4,0-3.6l0,0c0,0,0-0.1-0.1-0.1c0,0,0.1-0.1,0.1,0c0-0.9,0-1.9,0-2.8l0,0
						l0,0c0-0.3,0-0.7,0-1l0,0l0,0c0-0.1,0-0.1,0-0.2l0,0c0-0.1,0-0.2,0-0.2c0-0.1,0-0.3,0-0.4c0,0,0,0-0.1,0l0,0l0,0l0,0l0,0
						c0,0,0,0,0-0.1v-0.1l0,0l0,0c0,0,0,0,0-0.1l0,0c0-0.1,0-0.1,0-0.2l0,0c0,0,0,0-0.1,0l0,0v-0.1l0,0c0-0.1,0-0.2,0-0.3l0,0l0,0
						c0,0,0,0,0-0.1l0,0c0,0,0-0.1,0,0c0-0.1,0-0.1,0-0.2c0,0,0,0,0.1,0c0-0.1,0-0.2,0-0.3l0,0c0.1-0.1-0.2-0.3,0-0.4
						c0-0.1,0,0-0.1,0l0.1-0.1c0-0.1,0-0.2,0-0.3l0,0v-0.1l0,0c-0.1-0.1-0.1-0.2,0-0.3l0,0c0-0.1,0-0.2,0-0.3v-0.2l0,0l0,0
						c0,0,0,0-0.1,0c0-0.1,0.1-0.1,0-0.2c0,0,0,0,0.1,0v-0.1c0,0-0.1,0,0,0c-0.1,0,0-0.1,0-0.1l0,0c0-0.1,0-0.2,0-0.3
						s-0.1-0.1-0.1-0.2c0.1-0.1,0.1-0.2,0-0.3c0.1,0.1,0.1,0,0.1-0.1v-0.1h-0.1c0-0.1,0.1-0.1,0-0.2c0-0.1,0,0,0.1,0l0,0
						c0,0-0.1,0,0-0.1l0,0v-0.1c0,0,0,0-0.1,0c0,0,0,0,0.1,0l0,0h-0.1c0,0,0,0,0.1,0c0-0.1,0-0.2,0-0.2l0,0c0-0.1,0-0.1-0.1-0.1
						c0-0.1,0.1-0.1,0-0.1l0,0l0,0l0,0c0-0.2,0-0.4,0-0.6h-0.1c0-0.2,0-0.3,0-0.4c0.2,0.1,0.1,0.2,0.1,0.4l0,0c0,0,0,0,0-0.1
						c0,0,0,0,0-0.1l0,0c0-0.2,0-0.4,0-0.7c0,0,0,0-0.1,0v-0.1c0-0.1,0.1-0.1,0.1-0.1c-0.1,0.1,0-0.1-0.1-0.2c0.1,0,0.1,0.1,0.1,0.2
						c0-0.2,0-0.4,0-0.6c-0.1,0-0.2,0-0.3,0l0,0h-0.1c0.1,0,0.1,0.1,0,0.1c0.1,0,0.1,0.1,0.1,0.1s0,0.1-0.1,0.1c0-0.1,0-0.3,0-0.3
						c-0.1,0-0.2,0-0.3,0l0,0h-0.1c-0.2,0-0.5,0-0.7,0c0,0,0,0-0.1,0c0,0.1,0.1,0,0.1,0h-0.1c0,0,0,0,0-0.1c-0.2,0-0.4,0-0.6,0l0,0
						H394c-0.2,0-0.5,0-0.7,0v0.1h-0.1v-0.1c-0.2,0-0.5,0-0.7,0v0.1c-0.1,0-0.1-0.1-0.1-0.1c-0.2,0-0.4,0-0.6,0v0.1
						c-0.1,0-0.1-0.1,0-0.1c-0.3,0-0.5,0-0.8,0c0,0,0,0,0.1,0.1c0,0.1,0,0,0,0.1c0,0-0.1-0.1-0.1-0.2c-0.2,0-0.4,0-0.7,0v0.1
						c0.1-0.1,0.1,0,0.1,0.1s0-0.1,0-0.1v0.1c-0.1,0,0-0.1-0.1-0.2c-1.2,0-2.5,0-3.7,0c0,3,0,6,0,9v-0.1v0.1c0,7.8,0,15.7,0,23.5
						h0.1l0,0v0.1c0,0.1,0,0.2,0,0.3l0,0c0,0,0,0,0,0.1c0,0.4,0,0.8,0,1.3l0,0c0,0,0,0,0,0.1c0,0,0,0-0.1,0c0,0.1,0,0.2,0,0.3l0,0
						l0,0c0,0.3,0,0.7,0,1l0,0c0,0.1,0,0.2,0,0.3c0,0,0,0,0.1,0c0,0,0,0.1-0.1,0.1c0,0.4,0,0.8,0,1.3c0.1-0.1,0.1-0.1,0.2-0.1
						c0,0.1-0.2,0.1-0.2,0.2c0,0,0,0-0.1,0c0,0.5,0,1,0,1.5c0,0,0.1,0,0.1-0.1l0,0c0,0.1-0.1,0.1-0.1,0.2l0,0c0,0.4,0,0.8,0,1.3l0,0
						c0,0,0,0,0,0.1c0,1,0,2,0,3c0,0,0.1-0.1,0.2-0.1l0,0l0,0v0.1h-0.1c0,0.1,0,0.2,0,0.3l0,0v0.1l0,0c0,0.4,0,0.9,0,1.3h0.1
						c0,0,0,0.1-0.1,0.1c0,0.4,0,0.9,0,1.3c0,0,0.1-0.1,0.2-0.1v0.1c0.8-0.2,1.6-0.4,2.3-0.5c0,0,0,0-0.1,0c0-0.1,0.2-0.2,0.3-0.2
						c0,0.1-0.1,0.2-0.2,0.2c0.5-0.1,1-0.2,1.4-0.3h0.1l0,0c0.3-0.1,0.6-0.1,0.9-0.2l0,0l0,0l0.1-0.1c0.1,0,0,0.1-0.1,0.2
						c0.6-0.1,1.2-0.3,1.8-0.4l0,0c0.3-0.1,0.6-0.1,0.9-0.2l0.1-0.1l0,0c0,0,0,0,0,0.1c0,0,0,0-0.1,0c0.6-0.1,1.1-0.2,1.7-0.4
						c0-0.3,0-0.5,0-0.8c0,0,0,0.1-0.1,0.1c-0.1,0,0-0.1-0.1-0.1c0-0.1,0.1-0.1,0.1-0.1c0-0.5,0-1,0-1.5c-0.1,0-0.1,0-0.1,0
						c0.1,0,0.1-0.1,0.1-0.2s0-0.1,0-0.2l0,0l0,0c0-0.5,0-0.9,0-1.4c-0.1,0.1-0.1,0.1-0.1,0.2c0,0-0.1,0-0.1-0.1
						c0.1,0,0.1-0.1,0.2-0.2c0-0.1,0-0.2,0-0.3c0,0,0,0,0,0.1c-0.1,0-0.1,0-0.1-0.1c0.1,0,0.1-0.1,0.1-0.1c0-0.1,0-0.1,0-0.2
						c0,0,0,0-0.1-0.1c0,0,0,0,0.1,0c0-0.3,0-0.6,0-0.9c0,0,0,0,0,0.1c-0.1,0-0.1,0.1-0.2,0l0.1-0.1V403l0.1-0.1c0-0.1,0-0.1,0-0.2
						c0,0,0,0-0.1,0c0-0.1,0-0.1,0.1-0.1c0-0.4,0-0.8,0-1.2c-0.1,0-0.1,0.1-0.2,0.1v-0.1c0,0,0.1,0,0.1-0.1c0,0,0,0,0.1,0l0,0l0,0
						v-0.1h-0.1l0.1-0.1c0-0.1,0-0.2,0-0.3l0,0l0,0c0-0.2,0-0.3,0-0.5c-0.1,0-0.2,0.1-0.2,0.2c-0.1,0,0,0,0-0.1c0,0.1-0.1-0.1,0-0.1
						c0,0,0,0,0,0.1c0-0.1,0.1-0.1,0.2-0.2c0,0.1,0,0.1,0,0.1c0-0.1,0-0.2,0-0.3c0,0,0,0,0,0.1h-0.1c-0.2-0.1,0.1-0.1,0.1-0.2
						s0-0.1,0-0.2l0,0v-0.1h0.1c0-0.3,0-0.6,0-0.9c0,0-0.1,0.1-0.2,0.1c0.1,0,0,0.1-0.1,0c0.1,0,0.1-0.1,0.2-0.1h0.1
						c0-0.1,0-0.2,0-0.2l-0.1,0.1c0,0,0-0.1-0.1-0.1c0.1,0,0.1-0.1,0.2-0.1c0-0.1,0-0.1,0-0.2c0,0,0,0-0.1-0.1l0,0c0,0,0,0,0.1,0
						c0-0.2,0-0.4,0-0.6l0,0c-0.1,0.1-0.2,0.2-0.3,0.3c-0.1,0-0.1-0.1,0-0.1c0.1-0.1,0.1-0.1,0.1-0.1c-0.1-0.1,0.1,0,0.1,0v-0.1h0.1
						c0-0.2,0-0.3,0-0.5c0,0,0,0-0.1,0c0,0-0.1,0,0-0.1c0,0,0.1,0,0.1-0.1c0-0.4,0-0.8,0-1.1c0,0-0.1,0-0.1,0.1l0,0
						c-0.1,0,0,0.1,0,0.1s0-0.1-0.1,0c-0.1-0.2,0.1-0.1,0.2-0.3l0,0c0-0.1,0-0.1,0-0.2l-0.1,0.1v-0.1h0.1c0-0.2,0-0.4,0-0.5
						c0,0,0,0-0.1,0c0,0,0.1-0.1,0-0.1l0,0c0-0.2,0-0.4,0-0.6l-0.1,0.1v-0.1c0,0,0,0,0.1,0c0,0,0,0,0-0.1h0.1l0,0c0-0.1,0-0.2,0-0.2
						l0,0c0,0,0,0-0.1,0c0,0,0-0.1,0.1-0.1l0,0c0,0,0,0,0-0.1l0,0l0,0c0-0.1,0-0.2,0-0.2l0,0l0,0c0-0.3,0-0.6,0-0.8
						c-0.1,0-0.1,0-0.2,0.1v-0.1c0,0.1,0.1,0,0.1,0s0,0,0.1,0.1l0,0c0,0-0.1,0,0-0.1c0,0,0,0,0.1,0c0-0.1,0-0.2,0-0.3c0,0,0,0-0.1,0
						v-0.1c0,0,0,0,0,0.1c0-0.2,0-0.5,0-0.7c0.1,0,0.1,0,0.2,0l0,0c0,0,0,0,0.1,0c0,0,0,0,0.1,0.1c0.1,0,0.3,0,0.4-0.1l0,0l0,0
						c0.4-0.1,0.8-0.1,1.3-0.1c0,0,0,0,0.1,0l0,0c0.4,0,0.8-0.1,1.2-0.1c0.1,0,0.1,0,0.1-0.1c0.1,0-0.1,0.1,0,0.1
						c1.4-0.2,2.8-0.3,4.2-0.5c0-0.1,0-0.3,0-0.3c0.1,0,0.1,0.1,0.2,0.2v0.1c0.2,0,0.4,0,0.7-0.1v-0.1c0,0,0.1,0,0.1,0.1
						c0.9-0.1,1.9-0.2,2.8-0.3c0,0.5,0,0.9,0,1.4l0,0c0,0.1,0,0.1,0,0.2l0,0c0,0.2,0,0.4,0,0.6l0,0c0,0.1,0,0.3,0,0.4l0,0
						c0,0.2,0,0.5,0,0.7c0,0,0,0,0.1,0l0,0c0,0.1,0,0,0.1,0l0,0c0,0.1-0.1,0.1-0.1,0.1v-0.1h-0.1c0,1,0,1.9,0,2.9l0,0v0.1
						c0,0.5,0,1,0,1.5c0,0,0.1,0,0.1-0.1c0,0.1-0.1,0.1-0.1,0.1c0,1.2,0,2.4,0,3.5l0,0l0,0c0,0.6,0,1.2,0,1.8h0.1c0,0-0.1,0-0.1,0.1
						l0,0c0,0.4,0,0.8,0,1.2c0,0,0.1,0,0.1-0.1c0,0.1-0.1,0.1-0.1,0.1s0.1,0,0,0.1l0,0c0,0.1,0,0.2,0,0.3l0,0l0,0c0,0.5,0,1,0,1.5
						l0,0l0,0c0,0,0-0.1,0.1-0.1c0,0,0,0-0.1,0l0,0c-0.1,0,0,0.1-0.1,0c0,0,0,0,0,0.1c0,0,0,0-0.1-0.1c0,0.2,0,0.3,0,0.5
						c0.5-0.1,1-0.2,1.6-0.3c0,0-0.1,0-0.1-0.1c0.1-0.1,0.2,0,0.1-0.1c0-0.1,0.1,0,0.1,0l0,0c0,0,0,0,0,0.1c0,0-0.1,0-0.1,0.1
						c0.1,0,0.2,0,0.3-0.1c0,0,0,0,0.1-0.1c0,0,0,0,0,0.1c2.5-0.4,5-0.8,7.6-1.2c0-7.1,0.1-14.2,0.1-21.3
						C416.7,383.7,416.7,383.6,416.8,383.6z"/>
				</g>
			</g>
			<g>
				<g>
					<path d="M521.4,389.7L521.4,389.7c-0.1-0.2-0.2-0.4-0.3-0.6l-0.1,0.1v-0.1c0,0,0-0.1,0.1-0.1c-0.1-0.2-0.2-0.4-0.3-0.7
						l-0.1,0.1l0,0l0,0c0,0,0.1-0.1,0.1,0c0,0,0-0.1-0.1-0.1c1-0.7,1.9-1.4,2.6-2.2l0,0l0,0c0.2-0.3,0.5-0.6,0.7-0.9
						c-0.1,0-0.1-0.1-0.1-0.2c0.1,0,0.1,0.1,0.1,0c0,0,0,0,0.1,0c0,0,0-0.1,0.1-0.1c0,0-0.1,0.1-0.1,0l0.1-0.1l0,0l0,0
						c0.6-0.9,1.1-1.8,1.6-2.8l0,0l0,0l0,0l0,0l0,0l0,0c0,0,0,0,0.1,0c0.1-0.1,0.1-0.3,0.2-0.4c0,0,0,0,0-0.1c0,0,0,0,0-0.1
						c-0.1,0-0.1,0.1-0.2,0.1c0,0,0-0.1-0.1-0.1c0.1,0,0.1,0,0.2-0.1h0.1c0.9-2.3,1.3-4.9,1.5-7.6c0,0,0,0,0-0.1c0,0,0,0,0.1,0
						c0.1-0.8,0.1-1.7,0.1-2.5h-0.1c0,0,0,0,0-0.1h0.1c0-1,0-2,0-3c0,0,0,0,0-0.1l0,0c0-0.4,0-0.8,0-1.3h-0.1h0.1c0-0.5,0-0.9,0-1.4
						c-1.2,0-2.3,0-3.5,0h-0.1c-0.2,0-0.3,0-0.5,0l0,0l0,0c0,0.1,0,0-0.1,0c-0.5,0-0.9,0-1.4,0c0,0-0.1,0.1,0,0.2
						c-0.1,0-0.1,0.1-0.2,0.1c0,0,0-0.1-0.1-0.1c0,0,0.1,0,0-0.1c0.1-0.1,0.1,0,0.2-0.1c-0.2,0-0.4,0-0.6,0h-0.1l0,0
						c-0.2,0-0.3,0-0.5,0l0,0c0,0,0,0-0.1,0c-0.5,0-1,0-1.5,0c-0.1,0.1-0.1,0.1-0.2,0.1c0,0,0-0.1,0.1-0.1c-0.1,0-0.3,0-0.4,0l0,0
						l0,0c-0.2,0-0.4,0-0.5,0c0,0-0.1,0.1-0.2,0l0,0H518c0,0.3,0,0.6,0,0.9c0,0,0-0.1,0.1-0.1c0,0,0,0,0,0.1s0.1,0,0.1,0.1
						c0,0-0.1,0-0.1,0.1s0,0.2,0,0.3h0.1c0,0-0.1,0-0.1,0.1l0,0l0,0l0,0c0,0.5,0,1.1,0,1.6l0.1-0.1c0.1,0,0.1,0,0.2,0c0,0,0,0,0,0.1
						c0,0,0,0-0.1,0c0,0,0,0.1,0.1,0.1c-0.1,0.1-0.2,0.1-0.1,0.1s0,0-0.1,0c0,0,0,0,0-0.1c0,0.1,0,0.2,0,0.3l0.1-0.1
						c0,0.1,0.1,0,0.2,0.1h-0.1h-0.1c0,0-0.1,0.1,0,0.1c0,0-0.1,0-0.1,0.1l0,0c0,0.1,0,0.2,0,0.2l0,0c0,0,0,0,0,0.1l0,0
						c0,0.1,0,0.2,0,0.4v0.1c0,0.2,0,0.5,0,0.7l0,0h0.1v-0.1c0.1,0,0.1,0,0.1-0.1h-0.1h0.1c0,0.1,0,0.1,0,0.2c0,0,0,0-0.1,0
						l-0.1,0.1c0,0,0.1,0.1,0,0.1c0-0.1,0,0-0.1,0c0,0.1,0,0.2,0,0.3c0,0,0.1,0,0.1-0.1c0,0.1,0.1,0.1,0.2,0c0,0.1-0.2,0.1-0.2,0.2
						h-0.1c0,0.1,0,0.2,0,0.2c0.1,0,0.1,0,0.2-0.1c0,0.1-0.1,0.1-0.2,0.1c0,0.1,0,0.1-0.1,0.2c0,0.1,0,0.2,0,0.3l0,0v0.1
						c0,0.3,0,0.6-0.1,0.8l0,0c0,0,0,0.1,0.1,0.1l-0.1-0.1c0,0.5-0.1,0.9-0.2,1.3c0,0,0,0,0-0.1c0,0,0.2,0,0.2-0.1
						c0.1,0,0,0.1,0,0.1s0.1-0.1,0.1,0c-0.1,0.1,0,0.1-0.2,0.2c0,0,0,0,0-0.1c-0.1,0,0,0.1-0.1,0.2V374c0,0.1,0,0.3-0.1,0.4
						c0.1-0.1,0.2-0.3,0.3-0.1c0,0.1-0.1,0.2-0.3,0.3c0,0,0,0,0-0.1c-0.1,0.3-0.1,0.7-0.2,1c0.1,0,0.1-0.1,0.2-0.2v0.1
						c0,0.1-0.2,0.1-0.3,0.2c0.1,0-0.1,0,0,0.1l0,0c0,0.1-0.1,0.2-0.1,0.4l0,0c0,0.1-0.1,0.1,0,0.2l0,0c0,0.1-0.1,0.2-0.1,0.4l0,0
						c-0.1,0.3-0.2,0.6-0.4,0.9c0,0,0,0,0.1,0c0.1,0.1,0,0.1-0.1,0.2l0,0c0,0,0,0.1-0.1,0.1l0,0l0,0c-0.1,0.1-0.1,0.3-0.2,0.4
						c0,0,0,0,0.1-0.1c0,0.1-0.1,0.3-0.2,0.3c-0.2,0.2-0.3,0.4-0.5,0.7c0,0,0.1,0,0.1-0.1c0,0,0,0.1,0,0c-0.1,0.1-0.2,0.3-0.3,0.3
						l0,0c-0.3,0.3-0.7,0.6-1.1,0.9c0,0,0,0,0,0.1l0,0c-0.2,0.1-0.3,0.2-0.5,0.3l0,0l0,0h-0.1l0,0c0,0.1-0.2,0.2-0.2,0.1h0.1
						c-0.4,0.1-0.7,0.3-1.1,0.3c0,0.1-0.1,0.1-0.1,0.1s0,0,0-0.1l0,0c-0.1,0-0.3,0-0.4,0.1c0,0-0.1,0-0.1,0.1l0,0
						c-0.3,0-0.6,0.1-0.9,0.1c-0.1,0.1-0.1,0.1-0.2,0.1c0,0.1-0.1,0.1-0.2,0c0.1,0,0.2-0.1,0.2-0.2c-0.2,0-0.4,0-0.6,0
						c-0.1,0-0.1-0.1-0.1,0.1l0,0l0,0l0,0c-0.1,0-0.3,0-0.4,0c0,0,0,0-0.1,0l0,0h-0.1c-0.2,0-0.5,0-0.7,0c0-0.3,0-0.5,0-0.8
						c-0.1,0.1-0.1,0.1-0.2,0.2c-0.1,0-0.1-0.1-0.1-0.1c0.1-0.1,0.2-0.2,0.3-0.2c0-0.1,0-0.2,0-0.3h-0.1c0,0,0-0.1,0.1-0.1
						c0-0.6,0-1.1,0-1.7c0,0,0,0-0.1,0c0,0.1-0.1,0.2-0.2,0.1c0.1,0,0.2-0.1,0.2-0.2s0-0.1,0-0.2l0,0c-0.1-0.1-0.1-0.1-0.1-0.2
						c0,0,0.1,0,0.1-0.1c0-0.3,0-0.5,0-0.8c-0.1,0-0.3,0.2-0.5,0.4c-0.1,0-0.1-0.1-0.1-0.1c0.1-0.1,0.4-0.4,0.5-0.3
						c0-0.2,0-0.3,0-0.5c-0.1,0.1-0.1,0.3-0.3,0.3c0-0.2,0.2-0.2,0.3-0.4l0,0c0-0.1,0-0.2,0-0.3c-0.1,0.1-0.1,0.1-0.2,0.2
						c0,0-0.1,0-0.1-0.1c0.1-0.1,0.2-0.2,0.3-0.2c0-0.1,0-0.1,0-0.2l0,0c-0.1,0-0.1-0.1-0.1-0.2h0.1c0-0.5,0-1.1,0-1.6
						c0,0,0,0-0.1,0c0,0.1,0,0.1-0.1,0.1c-0.1-0.2,0-0.2,0.2-0.3c0-0.1,0-0.2,0-0.3c0,0,0,0-0.1,0l-0.1-0.1l0.1-0.1
						c0-0.4,0-0.8,0-1.2l0,0l0,0c0-0.1,0-0.3,0-0.4c0,0-0.1,0.1,0,0.1l0,0c0-0.1-0.1,0.1-0.2,0.1c0-0.1,0.2-0.2,0.3-0.3
						c0-0.1,0-0.2,0-0.2s0,0-0.1,0.1c0-0.1-0.1,0-0.1-0.1c0.1,0,0.1-0.1,0.2-0.2c0-0.1,0-0.2,0-0.3s-0.1-0.1-0.1-0.2c0,0,0,0,0.1,0
						c0-0.3,0-0.5,0-0.8c0,0,0,0-0.1,0c-0.1,0.1-0.2,0.3-0.4,0.3v-0.1c0.1-0.1,0.3-0.2,0.4-0.3c0-0.1,0-0.1,0-0.2
						c0,0.1-0.1,0.1-0.2,0.1l-0.1-0.1c0.1,0,0.2-0.1,0.2-0.2h0.1c0-0.1,0-0.1,0-0.2l0,0c-0.1-0.1-0.2-0.1-0.1-0.2
						c0.1,0,0.1,0,0.2-0.1c0-0.1,0-0.2,0-0.3l0,0l0,0c0-0.3,0-0.6,0-0.9h-0.1h0.1c0-0.1,0-0.2,0-0.4c-0.1,0.1-0.2,0.1-0.2,0.2
						c0,0-0.1,0-0.1-0.1c0.1,0,0.1-0.1,0.1-0.1s0,0,0,0.1c0,0,0.1-0.1,0-0.1c0.1,0,0.1,0,0.1-0.1s0-0.1,0-0.2c0,0-0.1,0-0.1,0.1
						c0,0,0-0.1-0.1-0.1v-0.1h0.1c0-0.2,0-0.3,0-0.5c0,0,0,0,0-0.1l0,0c0-0.3,0-0.5,0-0.8l0,0c-0.1,0.1-0.2,0.2-0.2,0.3
						c0,0-0.1,0-0.1,0.1c-0.1,0-0.1-0.1-0.1-0.2c0.1,0,0.1-0.1,0.2-0.2c-0.2,0-0.3,0-0.5,0c-0.1,0-0.1,0.1-0.2,0.1s0-0.1,0.1-0.1
						c-0.2,0-0.4,0-0.6,0c0,0,0,0.1-0.1,0.1l0,0c0,0,0,0,0-0.1c-0.1,0-0.3,0-0.4,0l0,0l0,0c-0.8,0-1.5,0-2.3,0l0,0l0,0
						c-0.2,0-0.4,0-0.6,0l0,0l0,0c-1,0-1.9,0-2.8,0l0,0l0,0c-0.6,0-1.2,0-1.7,0c0,2.1,0,4.2,0,6.2h0.1c0,0.1-0.1,0.1-0.1,0.1v0.1
						c0,0.7,0,1.4,0,2.1l0,0c0,0,0,0,0-0.1l0,0c0,0,0-0.1,0,0h0.1c0.1,0,0,0,0,0v0.1c-0.1,0-0.1,0-0.1,0.1c0,0,0,0-0.1,0l0,0
						c0,0.6,0,1.1,0,1.7l0,0v0.1h-0.1c0,0.2,0,0.3,0,0.5l0,0l0,0c0,0.6,0,1.1,0,1.7c0,0,0,0,0,0.1l0,0c0,0.7,0,1.5,0,2.2
						c0.1,0,0-0.1,0.1-0.1s0.1,0,0.1,0c0,0.1-0.1,0.2-0.2,0.2c0-0.1,0-0.1,0-0.1c0,0.9,0,1.9,0,2.8l0,0c0,0,0,0,0,0.1
						c0,1.4,0,2.7,0,4.1c0,0,0,0,0.1,0c0,0,0,0.1,0.1,0.1l-0.1,0.1c0,2.8,0,5.6,0,8.3v0.1l0,0l0,0c0,0.9,0,1.9,0,2.8l0,0
						c0,0.1,0,0.1,0,0.2l0,0c0,0.1,0,0.2,0,0.2v0.1l0,0l0,0l0,0l0,0l0,0l0,0c0,0.1,0,0.2,0,0.3l0,0c0.1,0,0,0.1,0,0.2c0,0,0,0-0.1,0
						c0,0.1,0,0.2,0,0.3l0,0c0,0,0,0,0.1,0v0.1l0,0c0,0,0,0,0.1,0c0,0,0,0.1,0,0h-0.1c0,0,0.1,0,0,0c0,0,0,0-0.1,0
						c0,0.4,0,0.8,0,1.2v0.1l0,0c0,0.1,0,0.3,0,0.4l0,0l0,0c0,0.1,0,0.2,0,0.3v0.1c0,1,0,2,0,3c0,0,0,0,0.1,0c0,0,0,0,0,0.1
						s0,0.2,0,0.3l0,0v0.1v0.1c0,0,0,0-0.1,0v0.1c0.8,0.1,1.7,0.2,2.5,0.4l0,0l0,0c0.1,0,0.3,0,0.4,0.1l0,0c0,0,0,0,0.1,0v0.1
						c0.5,0.1,1,0.2,1.5,0.2l0,0c0-0.1,0.1-0.1,0.1,0s-0.1,0.1-0.1,0c0.2,0,0.5,0.1,0.7,0.1l0,0l0,0l0,0c0.3,0.1,0.7,0.1,1,0.2
						c0,0,0,0,0.1,0c0,0,0,0,0,0.1c1,0.2,2,0.3,3.1,0.5c0-5.3,0-10.7-0.1-16c1.2,0.1,2.3,0.3,3.6,0.1c2.7,5.8,5.4,11.8,8,18
						c3.4,0.7,6.8,1.5,10.3,2.3c0-0.6,0-1.2,0-1.9c-3-7-6-13.6-9.1-19.9C521.4,389.8,521.4,389.7,521.4,389.7z"/>
				</g>
			</g>
			<g>
				<path d="M454.2,394.2c0,0-0.1-0.2-0.1-0.3c-0.1-0.3-0.3-0.6-0.4-0.9l0,0c-0.2-0.5-6.8-15-7.1-15.7h-0.1c0,0,0-0.1,0.1-0.1
					c-0.4-0.9-0.8-1.9-1.3-2.8c0,0,0,0,0-0.1l0,0c-0.5-1-0.9-2-1.4-3c0,0,0,0,0-0.1l0,0c-0.2-0.3-0.3-0.7-0.5-1.1c0,0.1,0,0,0,0
					c-0.8-1.9-1.7-3.6-2.5-5.6c-0.6,0-1.2,0-1.8,0c0,0,0.1,0.1,0,0.1v-0.1l0,0c-0.7,0-1.4,0-2.2,0c-0.4,1-0.9,2-1.3,3.1h0.1v0.1l0,0
					c0,0.1-0.2,0.1-0.2,0.2l0,0c0,0,0,0,0,0.1l0,0c-0.1,0.3-0.3,0.6-0.4,0.8l0,0l0,0l0,0l0,0l0,0c-0.2,0.4-0.3,0.8-0.5,1.2l0,0l0,0
					c0,0.1-0.1,0.1-0.1,0.2c0,0,0,0,0,0.1l0,0l0,0l0,0c0,0.1-0.1,0.1-0.1,0.2c0,0,0,0.1,0.1,0.1l0,0c0,0,0,0-0.1,0l0,0
					c-0.1,0.3-0.3,0.6-0.4,0.9c0,0,0,0,0,0.1c0,0,0,0-0.1,0l0,0c0,0.1-0.1,0.1-0.1,0.2c0.1,0,0.1,0.1,0.1,0.1
					c-0.1,0-0.1-0.1-0.1-0.1c-0.2,0.4-0.4,0.8-0.5,1.2l0.1,0.1c0,0,0,0-0.1-0.1c0,0.1-0.1,0.1-0.1,0.2c0,0,0.1,0,0.1,0.1l0,0
					c0,0,0,0-0.1-0.1c0,0.1-0.1,0.1-0.1,0.2l0,0l0,0c-0.1,0.1-0.1,0.3-0.2,0.4l0,0l0,0l0,0l0,0l0,0c0,0.1-0.1,0.1-0.1,0.2l0,0
					c0,0,0,0.1,0.1,0c0,0.1-0.1,0.1-0.1,0.1s0,0-0.1,0c0,0.1,0,0.1-0.1,0.2l0,0c0,0.1,0.1,0.1,0.1,0.2l0,0c0,0,0-0.1-0.1-0.1
					c0-0.1,0-0.1,0-0.1c0,0.1-0.1,0.1-0.1,0.2l0,0c0,0,0,0,0,0.1l0,0c-0.1,0.2-0.2,0.5-0.3,0.7v0.1l0,0c0,0.1-0.1,0.1-0.1,0.2
					c0,0,0,0,0.1,0.1c0,0,0-0.1,0.1,0l-0.1,0.1c0,0,0,0,0-0.1c0,0.1-0.1,0.1-0.1,0.2l0.1,0.1h0.1c0,0,0,0,0,0.1
					c0-0.1-0.1-0.1-0.1-0.2c-0.1,0.3-0.3,0.6-0.4,0.9c0,0.1,0.1,0.1,0.1,0.1c-0.1,0.1-0.1,0-0.1,0s0,0.1-0.1,0.1l0,0
					c0,0,0.1-0.1,0.1,0c0,0,0,0-0.1,0c0,0,0,0,0.1,0.1l0,0c0,0,0,0,0,0.1l0,0c0.1,0.1-0.1,0.1-0.1,0.2c0,0-0.1-0.1-0.1,0v-0.1v0.1
					l0,0v0.1l0,0c-0.1,0.2-0.2,0.4-0.3,0.7l0,0c0,0,0,0-0.1,0l0,0c0,0,0,0,0,0.1l0,0c0,0.1,0,0.1-0.1,0.2c0,0,0.1,0.1,0.1,0.2
					c-0.1,0-0.1,0-0.1,0c0,0.1-0.1,0.1-0.1,0.2l0,0c0.1,0.1,0.1,0.1,0.2,0.2c0,0,0,0-0.1,0c0,0-0.1-0.1-0.1-0.2
					c-0.1,0.2-0.2,0.5-0.3,0.7l0,0l0,0c0,0.1-0.1,0.2-0.1,0.2s0,0.1,0.1,0.1h-0.1c0,0.1-0.1,0.1-0.1,0.2l0.1,0.1l0,0l0,0l-0.1-0.1
					c-0.1,0.3-0.3,0.6-0.4,1l0,0l0,0c0,0.1-0.1,0.2-0.1,0.3c0,0,0,0.1,0.1,0.1c0,0,0,0-0.1,0l0,0c0,0.1-0.1,0.1-0.1,0.2
					c0.1,0,0.1,0.1,0.1,0.2l-0.1-0.1c0,0.1-0.1,0.2-0.1,0.2c0,0.1,0.1,0.1,0.2,0.2l0,0c-0.1-0.1-0.2-0.1-0.1-0.2l0,0
					c-0.1,0.2-0.2,0.5-0.3,0.7v0.1c0,0,0,0-0.1,0c0,0.1-0.1,0.1-0.1,0.2c0,0,0,0.1,0.1,0.1c0,0-0.1,0-0.1-0.1c0,0.1-0.1,0.1-0.1,0.2
					l0.1,0.1c-0.1,0-0.1-0.1-0.1-0.1c0,0.1-0.1,0.2-0.1,0.3c0,0,0.1,0.1,0.1,0.2c-0.1,0-0.1-0.1-0.1-0.1c-0.1,0.2-0.2,0.5-0.3,0.7
					c0,0,0,0.1,0.1,0.1l0,0v-0.1l0,0c0,0.1-0.1,0.2-0.1,0.3l0,0l0.1,0.1c0,0-0.1,0,0,0c0,0-0.1,0,0,0l-0.1-0.1
					c-0.1,0.2-0.2,0.5-0.3,0.7l0,0l0,0c-2.5,5.8-5,11.7-7.5,17.8c0,0.5,0,1,0,1.5c3-0.4,6.1-0.7,9.1-1c0.7-1.7,1.4-3.4,2.2-5
					c2.3-0.2,4.7-0.3,7-0.5c0,0,0,0-0.1,0c0-0.1,0-0.1,0-0.1c0.1,0,0,0.1,0.1,0.1l0,0c0.8,0,1.7-0.1,2.5-0.1c0,0,0,0,0-0.1
					c0.1,0,0.1,0,0,0.1c0.1,0,0.2,0,0.3,0c0-0.1,0-0.2,0-0.3c0,0,0,0.1,0.1,0.1c-0.1,0.1,0,0.2-0.1,0.2c0.1,0,0.2,0,0.3,0
					c0-0.1,0-0.1,0-0.1v0.1c0.7,0,1.5-0.1,2.2-0.1l0,0h0.1c0.2,0,0.4,0,0.7,0c0,0,0,0,0-0.1l0,0c0.1,0,0.2,0,0.4,0
					c0-0.1-0.1-0.1,0-0.1s0-0.1,0-0.1c-0.1,0-0.1-0.2,0-0.2s0.1,0.1,0.1,0.2h0.1c0,0.1,0,0.1,0,0.2c0.1,0,0.1,0,0.2,0l0,0
					c0,0,0,0,0.1,0s0.2,0,0.3,0c0.1,0.3,0.3,0.6,0.4,0.9c0-0.1,0,0,0,0c0.2,0,0.2-0.3,0.2,0.7l0,0c0.2,0,0.4,0.7,0.6,1.1v-0.2
					c0.1,0.1,0.2,0.2,0.2,0.3c0,0,0,0-0.1,0c0.3,0.6,0.6,1.2,0.8,1.8c0.1,0,0.3,0.1,0.4,0.1c-0.1,0-0.1-0.1-0.1-0.1h0.1
					c0,0-0.1,0,0,0c0,0.1,0,0,0,0.1c0.2,0,0.5,0,0.7,0c0,0,0,0,0-0.1l0,0v0.1c0.2,0,0.4,0,0.6,0c0,0,0,0,0-0.1h0.1l0,0l0,0v0.1
					c0.2,0,0.4,0,0.6,0c0-0.1,0-0.3,0.1-0.3c-0.1,0.1,0,0.2,0.1,0.3c0.2,0,0.4,0,0.6,0c0-0.1,0-0.2,0-0.2s0,0,0.1,0
					c0,0.1,0,0.2,0,0.2c0.2,0,0.4,0,0.6,0c0-0.1,0-0.1,0-0.2c0.1,0,0.1,0.1,0.1,0.2c0.2,0,0.4,0,0.7,0c0-0.1,0-0.1,0-0.2
					c0.1,0,0.1,0.1,0.1,0.2c0.2,0,0.4,0,0.7,0c0-0.1,0-0.2,0-0.2c0-0.2,0.1,0.1,0.1,0.2l0,0c0.2,0,0.5,0,0.7,0
					c-0.1-0.1-0.1-0.1,0-0.2c0.1,0,0.1,0.1,0,0.2c0.3,0,0.5,0,0.8,0c0-0.1-0.1-0.1-0.1-0.2s0.1-0.1,0-0.1c0.2,0,0.2,0.2,0.1,0.2
					c0,0,0.1,0.1,0,0.1c0.2,0,0.4,0,0.7,0c0-0.1,0-0.2,0-0.2c0.1-0.1,0.3,0.1,0.3,0.2c0.3,0,0.2,0,1.2,0c0-0.5,0-0.9,0-1.4
					C457.6,401,454.3,394.5,454.2,394.2z M434.3,370.4C434.3,370.4,434.4,370.4,434.3,370.4C434.4,370.4,434.4,370.4,434.3,370.4
					C434.4,370.4,434.4,370.4,434.3,370.4z M442.9,390c0,0-7.3,0.1-8.3,0.1c0.1-0.2,0.1-0.3,0.2-0.5c0,0-0.1,0-0.1-0.1l0,0
					c0,0,0,0,0.1,0c0.5-1.3,1.1-2.6,1.6-4l0,0l0,0c0.1-0.1,0.1-0.2,0.2-0.4l0,0v0.3l0,0c0.2-1,0.3-0.9,0.5-1.3c0,0,0-0.1,0-0.2l0,0
					c0.1-0.2,0.2-0.4,0.2-0.6c0,0,0,0,0-0.1c0,0,0,0,0.1,0c0.1-0.3,0.2-0.5,0.3-0.8c0,0,0,0,0-0.1l0,0c0-0.1,0.1-0.2,0.1-0.2V382
					c0,0,0,0,0.1,0.1c0.2-0.4,0.3-0.8,0.5-1.2l0,0c0,0-0.1-0.2,0-0.1h0.1c0.1-0.3,0.3-0.7,0.4-1c0,0,0.3,0.6,0.4,0.9l1.1,2.6
					c0,0,0.4,0.8,0.3,0.8l0.4,0.9l0,0c0.2,0.5,0.4,1,0.6,1.5c0,0,0,0,0-0.1c0,0,0,0,0.1,0l0,0l0,0l0,0c0,0,0,0.1,0,0.2l0,0
					c0,0.1,0,0.1,0.1,0.2l0,0v0.1C441.9,387.3,443,390,442.9,390z"/>
			</g>
			<g>
				<g>
					<path d="M488.9,389c0,0.1,0,0.1-0.1,0.2c-0.4,0.1-0.9,0.1-1.3,0c-1.6-0.4-3.5,2-2.7,3.5c0.2,0.4,0.4,0.8,0.4,1.2
						c-0.6,0.6-2.4,1.7-3.5,1.9c-0.3-0.2-0.6-0.5-0.8-0.9c-0.2-0.4-0.7-0.6-1.2-0.7c-0.7,0.2-1.4,0.3-2.2,0.3
						c-0.5,0.2-0.8,0.6-0.9,1s-0.3,0.8-0.6,1.1c-0.3,0-0.8-0.1-1.2-0.2l0,0c0,0,0,0-0.1,0c-0.9-0.2-1.8-0.5-2.5-0.8
						c-0.1-0.4-0.1-0.9,0-1.3c0-0.1,0-0.2,0-0.3c0,0,0,0,0,0.1c-0.1,0,0.1-0.2,0-0.2c0,0,0.1,0,0.1,0.1c0-0.3-0.1-0.6-0.2-0.8l0,0
						l0,0c-0.1-0.1-0.1-0.2-0.2-0.3c-0.4-0.3-0.8-0.6-1.1-1c-0.7-0.4-1.4-0.5-2-0.2c-0.2,0.1-0.5,0.2-0.7,0.3c0,0-0.1,0.1-0.1,0.2
						v-0.1c-0.1,0-0.3,0-0.4,0l0,0l0,0h-0.1c-0.1-0.1-0.2-0.2-0.3-0.3h-0.1c0-0.1,0-0.1-0.1-0.1l0,0c-0.6-0.8-1.3-2.1-1.5-2.7
						c0.1-0.4,0.5-0.7,0.8-0.9c0,0,0,0,0-0.1l0,0l0,0l0,0l0,0c0.1,0,0.1-0.1,0.2-0.1v-0.1c0.1,0.1,0.1,0,0.1-0.1l0,0l0.1,0.1
						c0.1-0.1,0.2-0.2,0.2-0.3c0,0,0-0.1,0-0.2c0,0,0,0,0,0.1l0,0c0,0,0,0,0-0.1c0,0,0,0,0.1,0c0.4-0.7,0.5-1.7,0.1-2.5
						c0,0,0,0-0.1,0c0.1-0.1,0,0-0.1-0.1c0-0.1,0-0.1,0.1-0.1l0,0l0,0c-0.1,0,0-0.1,0-0.1l0,0c-0.2-0.4-0.6-0.7-1.1-0.9l0,0l0,0
						c0,0,0,0-0.1,0c-0.5-0.1-1.1-0.5-1.2-0.7c0-0.1,0-0.2,0-0.2l0,0c0,0,0,0,0-0.1s0-0.2,0.1-0.4l0,0l0,0c0-0.2,0.1-0.5,0.2-0.8
						v-0.2c0.1-0.6,0.3-1.1,0.5-1.6l0,0l0,0c0-0.1,0.1-0.2,0.1-0.3c0.4-0.2,0.9-0.2,1.4-0.1s1.1-0.1,1.6-0.5
						c0.1-0.3,0.3-0.6,0.4-0.8h-0.1c0,0,0,0,0-0.1c0,0,0.1,0,0.1-0.1l0,0c0,0,0,0,0-0.1c0,0,0,0,0.1,0l0,0c0.1-0.2,0.3-0.4,0.4-0.6
						l0,0l0,0c0.1-0.1,0.2-0.2,0.2-0.3c0-0.2,0.1-0.3,0-0.5c0,0-0.1,0.1,0,0.2c0,0-0.1,0-0.1-0.1c0,0,0,0,0.1,0v-0.1
						c0,0,0-0.1,0.1-0.1c0-0.2-0.1-0.3-0.1-0.4c-0.1-0.1-0.1-0.2-0.1-0.3c0,0,0,0-0.1,0c0,0,0,0,0-0.1c0,0,0,0,0.1,0
						c-0.1-0.3-0.1-0.6-0.1-0.8c0,0-0.1,0-0.1,0.1l0,0c0,0,0.1,0,0-0.1c0,0,0,0,0.1,0c0,0,0,0,0-0.1c0.4-0.3,1-0.7,1.6-1
						c0,0,0,0,0.1,0l0,0c0.1-0.1,0.2-0.1,0.3-0.2c0,0,0.2-0.1,0.2-0.2c0,0,0,0.1-0.1,0.1c0.5-0.2,0.9-0.5,1.2-0.5
						c0.1,0.1,0.3,0.2,0.5,0.3l0.1-0.1c0,0-0.1,0,0,0.1h-0.1c0.1,0.1,0.2,0.2,0.3,0.4l0,0l0,0l0.1,0.1c0.1,0.1,0.1,0.2,0.2,0.3
						c0,0,0,0,0.1,0c0,0,0,0,0,0.1c0.1,0.1,0.1,0.1,0.2,0.2c0.1,0,0.1-0.1,0.2-0.2c0,0.1-0.1,0.2-0.2,0.2c0,0,0,0,0.1,0
						c0.3-0.1,0.7-0.1,1-0.2l0,0l0,0c0.1,0,0.1,0,0.2,0v-0.1h0.1l0,0c0,0,0,0,0.1,0c0,0.1,0,0,0,0s0,0.1,0.1,0.1c0,0,0,0-0.1,0.1
						l0,0c0,0,0,0,0,0.1c0,0-0.1-0.1-0.1,0c0.1,0,0.3,0,0.4,0l0.1-0.1c0,0.1-0.1,0,0,0.1h-0.1c0.1,0,0.2,0,0.4,0l0,0c0,0,0,0,0.1,0
						s0.2,0,0.2,0c0.3,0,0.5,0,0.8,0c0.1-0.1,0.2-0.1,0.3-0.2c0,0-0.1,0-0.1,0.1c0,0,0,0,0-0.1c0,0,0.1,0,0.1-0.1c0,0,0,0,0.1,0l0,0
						c0-0.1,0-0.1,0-0.1s0,0,0.1,0c0,0.1,0,0-0.1,0c0,0,0,0,0.1,0c0,0,0,0,0,0.1c0.2-0.2,0.3-0.4,0.3-0.6s0.1-0.4,0.2-0.5v-0.1l0,0
						l0,0l0,0c0.1-0.2,0.3-0.4,0.4-0.5c1.3,0.1,2.9,0.6,3.6,1c0.1,0.3,0.2,0.9,0,1.3c-0.4,1.4,2.2,3.4,3.5,2.7
						c0.4-0.2,0.8-0.3,1.2-0.3c0.5,0.7,1.5,2.1,1.8,3.2c1.6,0.1,3.2,0.1,4.9,0.2c-1.4-10.5-9.4-14.8-16.9-14.9
						c0,0.1-0.1,0.1-0.2,0.2c0,0,0-0.1-0.1-0.1c0.1,0,0.1-0.1,0.2-0.1c-0.1,0-0.2,0-0.3,0c-0.3,0-0.7,0-1,0l0,0l0,0
						c-0.2,0-0.5,0-0.7,0c0,0,0,0,0,0.1c-0.1,0-0.1,0.1-0.1,0.1l0,0c0.1,0,0.1-0.1,0.1-0.1c-0.1,0-0.3,0-0.4,0l0,0h-0.1
						c-0.1,0-0.2,0-0.3,0l0,0l0,0c-0.3,0-0.5,0.1-0.8,0.1c0,0,0,0.1,0.1,0.1c-0.1,0.1-0.1,0-0.2,0.1c0,0,0-0.1-0.1-0.1l0,0
						c-0.2,0-0.5,0.1-0.7,0.1l-0.1,0.1l0,0c0,0,0,0,0.1,0c0,0-0.1,0-0.1,0.1c0,0-0.1,0-0.1-0.1c0.1,0.1,0,0,0.1,0c0,0,0-0.1,0.1-0.1
						c-0.2,0-0.3,0.1-0.5,0.1l0,0l0,0c-0.1,0-0.1,0-0.2,0l0,0l0,0l0,0l0,0c-0.2,0-0.4,0.1-0.6,0.2l0,0c0,0,0,0-0.1,0l0,0
						c0,0,0,0-0.1,0l0,0l0,0l0,0l0,0c-0.2,0.1-0.5,0.1-0.7,0.2c0,0.1-0.2,0.1-0.2,0.1c-0.1,0-0.2,0.1-0.2,0.1s0,0.1-0.1,0
						c-0.3,0.1-0.6,0.2-0.9,0.4c0,0.1-0.2,0.1-0.2,0.1c-0.4,0.2-0.8,0.4-1.3,0.6l0,0l0,0c-0.1,0.1-0.3,0.1-0.4,0.2l0,0l0,0l-0.1,0.1
						l-0.1,0.1c-0.1,0-0.1,0.1-0.2,0.1l0,0c0,0,0,0-0.1,0l-0.2,0.1c-0.1,0.1-0.2,0.1-0.3,0.2l-0.2,0.1c-0.5,0.4-1,0.7-1.5,1.1
						c0,0-0.2,0.3-0.3,0.2c-0.1,0-0.1,0.1-0.2,0.1l0,0l0,0l-0.1,0.1c0,0.1,0,0.2-0.1,0.1c0,0,0,0.1-0.1,0.1
						c-0.1,0.1-0.3,0.3-0.4,0.4l-0.2,0.2c-0.2,0.2-0.3,0.4-0.5,0.6c0,0,0,0.1,0,0c-0.1,0-0.1,0.1-0.2,0.2c-0.2,0.2-0.3,0.4-0.4,0.6
						l0,0l0,0l-0.1,0.1c0,0,0,0,0,0.1c0,0,0,0-0.1,0c-0.1,0.1-0.1,0.2-0.2,0.3c0.1,0,0,0.1,0,0c-0.1,0.2-0.3,0.4-0.4,0.6
						c0,0,0,0.1-0.1,0.2s-0.1,0.2-0.2,0.3c0.1-0.1,0.1,0,0,0.1c-0.3,0.5-0.5,0.9-0.7,1.4c0,0,0,0.1-0.1,0.1
						c-0.1,0.1-0.1,0.3-0.2,0.4c0,0,0,0,0,0.1l0,0l0,0l0,0c0,0.1-0.1,0.2-0.1,0.4c0,0,0,0.1,0,0c-0.2,0.6-0.4,1.2-0.6,1.9v0.1
						c-0.4,1.5-0.6,3.1-0.7,4.8v0.2c0,0.2,0,0.4,0,0.7c0,1.3,0.1,2.5,0.3,3.6c0,0,0,0,0.1,0c0,0,0,0.1-0.1,0.1
						c0,0.3,0.1,0.5,0.1,0.8c0,0,0,0,0.1,0c0,0,0,0.1-0.1,0.1c0.1,0.4,0.2,0.9,0.3,1.3c0-0.1,0-0.1,0-0.2c0.1,0.1,0,0.1,0,0.2
						c0,0,0,0-0.1,0c0.2,0.6,0.3,1.1,0.5,1.6l0,0v0.1c0.8,2.1,2,4,3.4,5.5c0,0,0,0,0-0.1c0.1,0,0.1,0.1,0.1,0.2c0.5,0.5,1,1,1.5,1.5
						c0,0,0-0.1,0.1-0.1v0.1c0.3,0.2,0.5,0.4,0.8,0.6l0,0c0,0,0,0,0,0.1c0.6,0.5,1.3,0.9,2,1.3v-0.1c0,0,0-0.1,0.1-0.1
						c0,0,0,0.2,0.1,0.3c2.9,1.7,6.2,2.6,9.5,2.8c3.6,0.2,7.2-0.4,10.3-2.2c0,0,0,0,0-0.1c0,0,0,0,0.1,0c0.3-0.2,0.5-0.3,0.8-0.5
						v-0.1c0,0,0,0,0,0.1c0.1,0,0.1-0.1,0.2-0.1l0,0h0.1l0,0c0.3-0.2,0.5-0.4,0.8-0.6c0,0,0,0,0-0.1l0,0c0.1-0.1,0.1-0.1,0.2-0.2
						l0,0v-0.1c0,0,0,0,0.1,0c0.1-0.1,0.1-0.1,0.2-0.2c0,0,0,0,0-0.1c0,0,0,0,0.1,0l0,0l0,0v-0.1l0,0c-0.1,0,0,0.1,0,0.1l0,0
						c0.1,0,0.1-0.1,0.2-0.1c0,0,0,0,0-0.1c0,0,0,0,0,0.1l0,0V399l0,0c0,0,0,0,0-0.1c0,0,0,0.1,0,0l0,0c0,0,0,0,0,0.1l0.1-0.1v-0.1
						l0,0c0,0,0,0,0-0.1c0,0,0,0,0,0.1c0-0.1,0.1-0.1,0.1-0.2v-0.1v-0.1l0,0v0.1l0.1-0.1l0,0c0-0.1,0-0.1,0-0.2c0.1,0,0,0,0.1,0
						c0,0,0,0,0,0.1c0-0.1,0.1-0.1,0.1-0.2l0,0l0,0l0,0l0,0V398c0,0,0,0,0-0.1c0.1,0,0,0.1,0.1,0.1v0.1c0.1-0.1,0.1-0.1,0.2-0.2
						c0,0,0-0.1,0,0c0,0,0,0,0-0.1l0,0c0,0,0,0,0,0.1c0-0.1,0.1-0.1,0.1-0.2l0,0c0-0.1,0.1,0,0-0.1l0,0c0-0.1,0.1-0.1,0.1-0.2l0,0
						c0,0,0,0,0.1,0l0,0c0,0,0,0,0-0.1l0,0c0,0,0,0,0-0.1c0,0,0.1-0.1,0,0c0,0,0-0.1,0,0s0,0.1,0,0.1l0,0c0.1-0.1,0.1-0.2,0.2-0.3
						l0,0v-0.1c0.1,0,0-0.1,0.1,0l0,0l0,0c0,0,0-0.1,0.1-0.1l0,0l0,0c0.2-0.3,0.4-0.7,0.6-1v-0.1c0,0,0,0,0-0.1l0,0v0.1
						c0.1-0.1,0.1-0.2,0.2-0.3c0.1-0.2,0.2-0.3,0.2-0.5l0,0l0,0l0,0l0,0l0,0l0,0v-0.1l0,0c0.7-1.6,1.3-3.5,1.5-5.7
						C492.2,389.2,490.6,389.1,488.9,389z"/>
				</g>
			</g>
			<g>
				<circle cx="476.8" cy="384.6" r="3.4"/>
			</g>
		</g>
		<g class="st2">
			<g>
				<path d="M452.7,322.5c0.2,0.1,0.4,0.2,0.6,0.4c0.2,0.2,0.3,0.3,0.4,0.5s0.1,0.4,0.1,0.7v8.9c0,0.1,0,0.1-0.1,0.2
					s-0.1,0.1-0.2,0.1h-2.1c-0.1,0-0.1,0-0.2-0.1s-0.1-0.1-0.1-0.2v-8.2h-1.7v8.2c0,0.1,0,0.1-0.1,0.2s-0.1,0.1-0.2,0.1h-1.9
					c-0.1,0-0.2,0-0.2-0.1c-0.1-0.1-0.1-0.1-0.1-0.2v-8.2h-1.7v8.2c0,0.2-0.1,0.3-0.3,0.3h-2.1c-0.2,0-0.3-0.1-0.3-0.3v-10.4
					c0-0.2,0.1-0.3,0.3-0.3h9.2C452.3,322.4,452.5,322.4,452.7,322.5z"/>
			</g>
			<g>
				<path d="M463.1,330.7c0.1,0,0.2,0,0.2,0.1c0.1,0.1,0.1,0.1,0.1,0.2v2.1c0,0.1,0,0.2-0.1,0.2c-0.1,0.1-0.1,0.1-0.2,0.1h-7.3
					c-0.2,0-0.3-0.1-0.3-0.3v-10.3c0-0.2,0.1-0.3,0.3-0.3h2.2c0.2,0,0.3,0.1,0.3,0.3v7.7c0,0.1,0,0.2,0.1,0.2
					c0.1,0.1,0.1,0.1,0.2,0.1h4.5L463.1,330.7L463.1,330.7z"/>
			</g>
			<g>
				<path d="M474.2,322.4c0.1,0,0.2,0,0.2,0.1c0.1,0.1,0.1,0.1,0.1,0.2V333c0,0.1,0,0.2-0.1,0.2c-0.1,0.1-0.1,0.1-0.2,0.1H472
					c-0.1,0-0.2,0-0.2-0.1c-0.1-0.1-0.1-0.1-0.1-0.2v-3.6c0-0.1,0-0.2-0.1-0.2c-0.1-0.1-0.1-0.1-0.2-0.1h-3.2c-0.1,0-0.2,0-0.2,0.1
					c-0.1,0.1-0.1,0.1-0.1,0.2v3.6c0,0.2-0.1,0.3-0.3,0.3h-2.2c-0.2,0-0.3-0.1-0.3-0.3v-10.3c0-0.2,0.1-0.3,0.3-0.3h2.2
					c0.2,0,0.3,0.1,0.3,0.3v3.5c0,0.2,0.1,0.3,0.3,0.3h3.2c0.1,0,0.2,0,0.2-0.1c0.1-0.1,0.1-0.1,0.1-0.2v-3.5c0-0.1,0-0.2,0.1-0.2
					s0.1-0.1,0.2-0.1L474.2,322.4L474.2,322.4z"/>
			</g>
		</g>
	</g>
	<g class="st1">
		<path class="st2" d="M584.1,668.3c-3.9,0.6-7.8,1.2-11.7,1.9c0-6.9,0.1-13.9,0.1-20.8c-4.6,0.5-9.2,1-13.8,1.6
			c0,7.3,0,14.6-0.1,21.8c-3.9,0.8-7.8,1.7-11.6,2.6c0-19,0-38,0-56.9c3.8,0,7.8,0,11.7,0c0,6.6,0,13.2,0,19.7
			c4.6-0.4,9.2-0.7,13.8-1c0-6.3,0.1-12.5,0.1-18.8c3.9,0,7.8,0,11.7,0C584.3,635,584.2,651.6,584.1,668.3z"/>
		<path class="st2" d="M626.1,658.6c-5.9,0.2-11.8,0.6-17.7,1c-0.9,2-1.8,4.1-2.7,6.2c-3.7,0.3-7.5,0.7-11.2,1.2c0-0.6,0-1.2,0-1.8
			c6.8-16.6,13.6-32.2,20.4-47.4c1.6,0,3.3,0,4.9,0c6.7,15.1,13.4,29.8,20.2,44.6c0,0.6,0,1.1,0,1.7c-3.8,0-7.5,0.1-11.3,0.3
			C627.8,662.4,626.9,660.5,626.1,658.6z M617.2,636.6c-1.7,4.1-3.4,8.3-5.1,12.5c3.4-0.2,6.8-0.3,10.3-0.4
			C620.6,644.6,618.9,640.6,617.2,636.6z"/>
		<path class="st2" d="M702.5,668.1c-0.1-16.6-0.2-33.2-0.3-49.8c3.8,0,7.7,0,11.6,0c0,6.5,0.1,13,0.1,19.5c0.3,0,0.6,0,0.8,0.1
			c11.4,0.9,10.8-9.5,10.8-19.5c3.9,0,7.8,0,11.8,0c0,11.4,0.3,22.3-8.6,28.2c4.1,8.4,8.1,17.2,12.1,26.5c0,0.8,0,1.5,0,2.3
			c-4.2-1-8.4-1.9-12.6-2.8c-3.3-7.7-6.6-15-9.9-22.1c-1.5,0.1-2.9,0-4.4-0.2c0,6.6,0.1,13.1,0.1,19.7
			C710.1,669.2,706.3,668.6,702.5,668.1z"/>
		<g class="st2">
			<g>
				<g>
					<path d="M683.6,647.6c0,0.1-0.1,0.1-0.1,0.2c-0.5,0.1-1.1,0.2-1.6,0c-1.9-0.5-4.3,2.5-3.3,4.3c0.3,0.5,0.5,1,0.5,1.5
						c-0.8,0.8-3,2-4.3,2.4c-0.4-0.2-0.8-0.7-1.1-1.1c-0.3-0.5-0.8-0.8-1.5-0.9c-0.9,0.2-1.8,0.4-2.7,0.4c-0.6,0.3-1,0.7-1.2,1.2
						c-0.1,0.5-0.4,1-0.8,1.4c-0.4,0-1-0.1-1.5-0.2l0,0h-0.1c-1.1-0.2-2.3-0.7-3-1c-0.1-0.5-0.2-1.1,0-1.6c0-0.1,0.1-0.3,0.1-0.4
						c0,0-0.1,0-0.1,0.1c-0.1,0,0.1-0.2-0.1-0.2c0-0.1,0.1,0,0.1,0.1c0-0.3-0.1-0.7-0.3-1l0,0l0,0c-0.1-0.1-0.2-0.3-0.2-0.4
						c-0.5-0.4-1-0.8-1.4-1.2c-0.8-0.5-1.8-0.6-2.5-0.2c-0.3,0.2-0.6,0.3-0.9,0.3c0,0.1-0.1,0.1-0.1,0.2c-0.1,0,0-0.1,0-0.2
						c-0.2,0-0.3,0-0.5,0l0,0l0,0h-0.1c-0.1-0.1-0.2-0.3-0.3-0.4h-0.1c0-0.1,0-0.1-0.1-0.2c0,0,0,0,0-0.1c-0.7-1-1.6-2.6-1.8-3.4
						c0.2-0.5,0.6-0.9,1-1.2v-0.1c0,0,0,0,0.1,0c0,0,0,0-0.1,0l0,0l0,0c0.1,0,0.1-0.1,0.2-0.1c0,0,0-0.1,0-0.2
						c0.1,0.1,0.1-0.1,0.1-0.1l0,0l0.1,0.1c0.1-0.1,0.2-0.2,0.3-0.4V645c0,0,0,0,0.1,0.1c0,0,0,0,0-0.1c0,0,0,0,0-0.1h0.1
						c0.5-0.9,0.6-2.1,0.1-3.1c-0.1,0-0.1,0.1-0.1,0.1c0.1-0.1,0,0-0.1-0.1c0-0.1,0.1-0.1,0.1-0.1l0,0c0,0,0,0,0,0.1
						c-0.1,0,0-0.1,0-0.1l0,0c-0.3-0.5-0.8-0.9-1.4-1.1l0,0l0,0c0,0,0,0-0.1,0c-0.6-0.2-1.3-0.6-1.4-0.9c0-0.1,0-0.2,0-0.3l0,0
						c0,0,0,0,0-0.1s0-0.3,0.1-0.5l0,0l0,0c0.1-0.3,0.1-0.6,0.2-1c0,0,0-0.2,0.1-0.2c0.2-0.7,0.4-1.4,0.6-1.9c0,0,0,0,0-0.1l0,0
						c0.1-0.2,0.1-0.3,0.2-0.4c0.5-0.2,1.2-0.3,1.8-0.1c0.6,0.2,1.3-0.1,1.9-0.6c0.2-0.4,0.3-0.7,0.5-1h-0.1c0,0,0,0,0-0.1
						s0.1,0,0.1-0.1c0,0,0,0,0.1,0v-0.1c0,0,0,0,0.1,0l0,0c0.2-0.3,0.3-0.5,0.5-0.8l0,0c0,0,0,0,0.1,0c0.1-0.1,0.2-0.2,0.3-0.4
						c0-0.2,0.1-0.4,0.1-0.6c0,0.1-0.1,0.1,0,0.2c-0.1,0-0.1,0-0.1-0.1c0.1,0,0,0,0.1,0v-0.1c0-0.1,0-0.1,0.1-0.1
						c0-0.2-0.1-0.4-0.2-0.5s-0.1-0.2-0.2-0.3h-0.1v-0.1c0,0,0,0,0.1,0c-0.1-0.3-0.1-0.7-0.2-1c0,0-0.1,0-0.1,0.1c0,0,0,0-0.1-0.1
						c0-0.1,0.1,0,0-0.1h0.1v-0.1c0.4-0.4,1.2-0.8,2-1.3c0,0,0,0,0.1,0l0,0c0.1-0.1,0.3-0.1,0.4-0.2c0-0.1,0.2-0.2,0.2-0.2
						s0,0.1-0.1,0.2c0.6-0.3,1.1-0.6,1.5-0.7c0.2,0.1,0.4,0.2,0.6,0.4c0.1-0.1,0.1-0.1,0.2-0.1c0,0-0.1,0.1,0,0.1c0,0-0.1,0-0.1,0.1
						c0.1,0.1,0.3,0.3,0.4,0.5l0,0l0,0c0,0.1,0.1,0.1,0.1,0.2c0.1,0.1,0.2,0.2,0.3,0.3c0,0,0,0,0.1-0.1c0,0-0.1,0-0.1,0.1
						c0.1,0.1,0.2,0.1,0.3,0.2c0.1,0,0.2-0.2,0.3-0.2c0,0.1-0.1,0.2-0.2,0.3c0,0,0,0,0.1,0c0.4-0.1,0.8-0.2,1.2-0.2l0,0l0,0
						c0.1,0,0.1,0,0.2,0l-0.1-0.1c0,0,0.1-0.1,0.1,0l0,0h0.1c0,0.1,0,0,0.1,0c0,0.1,0,0.1,0.1,0.1c0,0.1,0,0.1-0.1,0.1
						c0,0,0,0,0-0.1c0,0,0,0,0,0.1c0,0-0.1-0.1-0.1,0c0.2,0,0.4,0,0.5,0c0,0,0.1-0.1,0.2-0.2c0,0.1-0.1,0,0,0.1h-0.1
						c0.2,0,0.3,0,0.5,0l0,0h0.1c0.1,0,0.2,0,0.3,0c0.3,0,0.6,0,0.9,0c0.1-0.1,0.2-0.2,0.3-0.3c-0.1,0-0.1,0-0.2,0.1v-0.1
						c0.1,0,0.1,0,0.1-0.1c0,0,0,0,0.1,0l0,0c0.1-0.1-0.1-0.1,0-0.1h0.1c0,0.1-0.1,0-0.1,0s0.1,0.1,0.1,0c0,0,0,0,0,0.1
						c0.2-0.2,0.4-0.4,0.4-0.7c0.1-0.2,0.2-0.5,0.3-0.7v-0.1l0,0l0,0l0,0c0.2-0.3,0.3-0.5,0.5-0.6c1.6,0.2,3.6,0.8,4.5,1.2
						c0.1,0.4,0.2,1.1,0.1,1.6c-0.5,1.8,2.7,4.2,4.3,3.3c0.5-0.3,1-0.4,1.5-0.4c0.7,0.8,1.8,2.6,2.3,3.9c2,0.1,3.9,0.1,6,0.2
						c-1.8-13-11.7-18.4-20.9-18.5c0,0.1-0.2,0.1-0.2,0.2c-0.1,0,0-0.1-0.1-0.1c0.1,0,0.2-0.1,0.2-0.1c-0.1,0-0.3,0-0.4,0
						c-0.4,0-0.8,0-1.2,0l0,0c0,0,0,0-0.1,0c-0.3,0-0.6,0-0.9,0.1c0,0,0,0,0,0.1c-0.1,0-0.1,0.1-0.2,0.1c0,0,0,0-0.1-0.1
						c0.1,0,0.1-0.1,0.1-0.1c-0.2,0-0.3,0-0.5,0.1l0,0h-0.1c-0.1,0-0.2,0-0.4,0l0,0l0,0c-0.3,0-0.6,0.1-0.9,0.1c0,0,0,0.1,0.1,0.1
						c-0.1,0.1-0.2,0.1-0.3,0.1l-0.1-0.1c0,0,0,0,0.1,0c-0.3,0.1-0.6,0.1-0.8,0.2l-0.1,0.1l0,0c0,0,0,0,0.1,0c0,0.1-0.2,0.1-0.2,0.1
						s-0.1,0-0.1-0.1c0.1,0.1,0-0.1,0.1,0l0.1-0.1c-0.2,0-0.4,0.1-0.6,0.1c0,0,0,0-0.1,0l0,0c-0.1,0-0.2,0-0.2,0.1l0,0h-0.1l0,0l0,0
						c-0.2,0.1-0.5,0.1-0.7,0.2l0,0c0,0,0,0-0.1,0l0,0h-0.1c0,0,0,0,0,0.1l0,0l0,0l0,0c-0.3,0.1-0.6,0.2-0.9,0.3
						c0,0.1-0.2,0.1-0.2,0.1c-0.1,0-0.2,0.1-0.3,0.1c0,0,0,0.1-0.1,0c-0.4,0.1-0.8,0.3-1.1,0.5c0,0.1-0.3,0.2-0.3,0.1
						c-0.5,0.2-1,0.5-1.6,0.8l0,0l0,0c-0.2,0.1-0.3,0.2-0.5,0.3l0,0l0,0c-0.1,0-0.1,0.1-0.2,0.1l-0.1,0.1c-0.1,0.1-0.2,0.1-0.2,0.2
						l0,0c0,0-0.1,0-0.1,0.1s-0.2,0.2-0.2,0.2c-0.1,0.1-0.3,0.2-0.4,0.3l-0.2,0.2c-0.6,0.4-1.2,0.9-1.8,1.4l-0.3,0.3
						c-0.1,0.1-0.1,0.1-0.2,0.2l0,0l0,0c-0.1,0.1-0.1,0.1-0.2,0.2c0,0.1,0,0.2-0.1,0.1c0,0.1-0.1,0.1-0.1,0.1
						c-0.2,0.2-0.4,0.4-0.5,0.5l-0.2,0.2c-0.2,0.2-0.4,0.5-0.6,0.7v0.1c-0.1,0.1-0.1,0.1-0.2,0.2c-0.2,0.2-0.4,0.5-0.6,0.7l0,0
						c0,0.1,0,0,0,0c0,0.1-0.1,0.1-0.1,0.2c0,0,0,0,0,0.1h-0.1c-0.1,0.1-0.2,0.3-0.3,0.4c0.1,0,0,0.1,0,0c-0.2,0.3-0.4,0.5-0.5,0.8
						c0,0,0,0.2-0.1,0.2c-0.1,0.1-0.2,0.3-0.3,0.4c0.1-0.1,0.1,0.1,0,0.1c-0.3,0.6-0.6,1.2-0.9,1.8c0,0,0,0.1-0.1,0.2
						c-0.1,0.2-0.1,0.3-0.2,0.5v0.1l0,0l0,0l0,0c-0.1,0.1-0.1,0.3-0.2,0.4c0,0,0,0.1,0,0c-0.3,0.8-0.5,1.5-0.8,2.3v0.1
						c-0.5,1.8-0.8,3.8-0.9,5.9v0.2c0,0.3,0,0.6,0,0.8c0,1.6,0.1,3,0.4,4.5c0,0,0,0,0.1,0c0,0.1,0,0.1-0.1,0.1
						c0.1,0.3,0.1,0.6,0.2,0.9c0,0,0,0,0.1,0c0,0-0.1,0.1-0.1,0.2c0.1,0.5,0.2,1.1,0.4,1.6c0-0.1,0-0.2,0.1-0.2
						c0.1,0.1,0,0.2,0.1,0.3h-0.1c0.2,0.7,0.4,1.3,0.6,2l0,0v0.1c1,2.6,2.5,4.9,4.2,6.8v-0.1c0.1,0,0.1,0.1,0.1,0.2
						c0.6,0.7,1.2,1.3,1.9,1.8l0.1-0.1c0,0,0,0.1,0,0.2c0.3,0.3,0.6,0.5,1,0.8c0,0,0,0,0-0.1v0.1c0.8,0.6,1.6,1.1,2.4,1.6v-0.1
						c0-0.1,0-0.1,0.1-0.2c0,0.1,0,0.2,0.1,0.3c3.6,2,7.7,3.2,11.7,3.4c4.4,0.3,8.9-0.5,12.7-2.7v-0.1h0.1c0.3-0.2,0.7-0.4,1-0.6
						v-0.1c0,0,0,0,0,0.1c0.1-0.1,0.2-0.1,0.2-0.2l0,0c0-0.1,0.1,0,0.1,0l0,0c0.3-0.2,0.7-0.5,1-0.8c0,0,0,0,0-0.1l0,0
						c0.1-0.1,0.1-0.1,0.2-0.2l0,0c0,0,0.1-0.1,0-0.1h0.1c0.1-0.1,0.2-0.1,0.2-0.2c0,0,0,0-0.1-0.1c0,0,0,0,0.1,0c0,0,0,0,0-0.1l0,0
						v-0.1c0,0,0,0,0.1,0c-0.1,0,0,0.1,0,0.2l0,0c0.1-0.1,0.1-0.1,0.2-0.2c0,0,0,0,0-0.1c0,0,0,0,0,0.1l0,0v-0.1l0,0c0,0,0,0,0-0.1
						c0,0,0,0.1,0,0c0,0,0,0,0.1,0c0,0,0,0,0,0.1l0.1-0.1v-0.1c0,0,0,0,0.1,0c0,0,0,0,0-0.1c0.1,0,0.1,0.1,0.1,0.1
						c0.1-0.1,0.1-0.1,0.2-0.2v-0.1v-0.1l0,0v0.1c0.1-0.1,0.1-0.1,0.2-0.2l0,0c0-0.1,0-0.1,0-0.2c0.1,0,0,0.1,0.1,0c0,0,0,0,0,0.1
						c0.1-0.1,0.1-0.1,0.2-0.2l0,0l0,0l0,0c0,0,0,0-0.1,0c0-0.1,0-0.1,0-0.2v-0.1c0.1,0,0,0.1,0.1,0.1c0,0.1,0,0.1,0,0.1
						c0.1-0.1,0.1-0.2,0.2-0.3v-0.1c0,0,0,0,0-0.1c0,0,0,0,0.1,0c0,0,0,0,0,0.1c0.1-0.1,0.1-0.1,0.2-0.2l0,0c0-0.1,0.1-0.1,0.1-0.1
						l0,0c0.1-0.1,0.1-0.1,0.2-0.2c0,0,0,0,0-0.1c0,0,0,0,0.1,0l0,0c0,0,0,0,0-0.1l0,0v-0.1c0,0,0.1-0.1,0-0.1c0,0,0-0.1,0.1-0.1
						c0,0.1,0,0.1,0,0.1s0,0,0,0.1c0.1-0.1,0.2-0.2,0.2-0.3c0,0,0,0-0.1,0c0,0,0-0.1,0-0.2c0.1,0,0.1-0.1,0.1,0c0,0,0,0,0,0.1l0,0
						l0.1-0.1l0,0l0,0c0.3-0.4,0.5-0.8,0.8-1.3v-0.1c0,0-0.1,0,0-0.1l0,0v0.1c0.1-0.1,0.1-0.2,0.2-0.4c0.1-0.2,0.2-0.4,0.3-0.6l0,0
						c0,0,0,0,0-0.1l0,0l0,0l0,0l0,0v-0.1c0,0,0,0,0,0.1c0.9-2,1.6-4.3,1.9-7C687.8,647.9,685.7,647.8,683.6,647.6z"/>
				</g>
			</g>
			<g>
				<circle cx="668.7" cy="642.2" r="4.2"/>
			</g>
		</g>
	</g>
	<g>
		<g>
			<polygon class="st3" points="846.8,696.2 670.8,696.2 670.8,742.9 846.8,742.9 798.7,719.6 			"/>
			<polygon class="st3" points="55.2,696.2 231.1,696.2 231.1,742.9 55.2,742.9 103.3,719.6 			"/>
			<polygon class="st4" points="736.8,742.2 670.8,696.2 670.8,829.5 736.8,829.5 			"/>
			<polygon class="st4" points="165.1,742.2 231.1,696.2 231.1,829.5 165.1,829.5 			"/>
			<rect x="165.4" y="742.8" class="st5" width="571.4" height="87.7"/>
			<g>
				<g>
					<path class="st6" d="M478.6,782.1h-17c-0.4,0-0.8,0.4-0.8,0.8v8.2c0,0.4,0.4,0.8,0.8,0.8h6.6v10.3c0,0-1.5,0.5-5.6,0.5
						c-4.8,0-11.7-1.8-11.7-16.6c0-15,7-16.9,13.7-16.9c5.8,0,8.2,1,9.8,1.5c0.5,0.1,1-0.3,1-0.8l1.9-8c0-0.1-0.1-0.4-0.3-0.7
						c-0.7-0.4-4.5-2.6-14.4-2.6c-11.4,0-22.9,4.8-22.9,28s13.3,26.7,24.6,26.7c9.3,0,15-4,15-4c0.3-0.1,0.3-0.4,0.3-0.5V783
						C479.5,782.5,479,782.1,478.6,782.1z"/>
					<path class="st6" d="M566.2,761.5c0-0.4-0.4-0.8-0.8-0.8h-9.6c-0.4,0-0.8,0.4-0.8,0.8V780h-14.8v-18.6c0-0.4-0.4-0.8-0.8-0.8
						h-9.6c-0.4,0-0.8,0.4-0.8,0.8v50c0,0.4,0.4,0.8,0.8,0.8h9.6c0.4,0,0.8-0.4,0.8-0.8V790h15v21.4c0,0.4,0.4,0.8,0.8,0.8h9.6
						c0.4,0,0.8-0.4,0.8-0.8v-50L566.2,761.5L566.2,761.5z"/>
					<g>
						<g>
							<path class="st6" d="M496.6,768.1c0-3.4-2.7-6.2-6.2-6.2s-6.2,2.7-6.2,6.2s2.7,6.2,6.2,6.2S496.6,771.5,496.6,768.1z"/>
							<path class="st6" d="M496,800.9c0-1.2,0-23.1,0-23.1c0-0.4-0.4-0.8-0.8-0.8h-9.5c-0.4,0-0.8,0.4-0.8,0.8c0,0,0,27.8,0,33.1
								c0,1,0.5,1.2,1.4,1.2c0,0,4.1,0,8.7,0c1,0,1.2-0.4,1.2-1.2C496,809.3,496,802.3,496,800.9z"/>
						</g>
					</g>
					<path class="st6" d="M602.5,777.1H593c-0.4,0-0.8,0.4-0.8,0.8v24.6c0,0-2.5,1.8-5.8,1.8s-4.4-1.5-4.4-4.9c0-3.3,0-21.4,0-21.4
						c0-0.4-0.4-0.8-0.8-0.8h-9.6c-0.4,0-0.8,0.4-0.8,0.8c0,0,0,13.1,0,23.1c0,9.9,5.5,12.4,13.2,12.4c6.3,0,11.3-3.4,11.3-3.4
						s0.3,1.8,0.4,2.1c0.1,0.3,0.4,0.4,0.7,0.4h6.2c0.4,0,0.8-0.4,0.8-0.8v-33.5C603.2,777.6,603,777.1,602.5,777.1z"/>
					<path class="st6" d="M628.5,776.1c-5.4,0-9.1,2.5-9.1,2.5v-16.9c0-0.4-0.4-0.8-0.8-0.8H609c-0.4,0-0.8,0.4-0.8,0.8v50
						c0,0.4,0.4,0.8,0.8,0.8h6.6c0.3,0,0.5-0.1,0.7-0.4c0.1-0.3,0.4-2.3,0.4-2.3s4,3.7,11.4,3.7c8.7,0,13.7-4.4,13.7-19.8
						C641.8,778,634,776.1,628.5,776.1z M624.8,804.2c-3.3-0.1-5.5-1.6-5.5-1.6v-15.8c0,0,2.2-1.4,4.9-1.6c3.4-0.3,6.7,0.7,6.7,8.9
						C630.8,802.7,629.3,804.4,624.8,804.2z"/>
					<path class="st6" d="M523.5,777h-7.2v-9.5c0-0.4-0.1-0.5-0.5-0.5H506c-0.4,0-0.5,0.1-0.5,0.5v9.8c0,0-4.9,1.2-5.2,1.2
						c-0.3,0.1-0.5,0.4-0.5,0.8v6.2c0,0.4,0.4,0.8,0.8,0.8h4.9c0,0,0,6.5,0,14.8c0,11,7.7,12.1,12.9,12.1c2.3,0,5.2-0.8,5.6-1
						c0.3-0.1,0.4-0.4,0.4-0.7v-6.7c0-0.4-0.4-0.8-0.8-0.8s-1.5,0.1-2.6,0.1c-3.6,0-4.7-1.6-4.7-3.7s0-14,0-14h7.1
						c0.4,0,0.8-0.4,0.8-0.8V778C524.2,777.4,524,777,523.5,777z"/>
				</g>
				<g>
					<path class="st6" d="M278.4,800h-2.7v-11.3H263V800h-2.8v-23.9h2.7v10.2h12.6v-10.2h2.7V800H278.4z"/>
					<path class="st6" d="M301.4,790.9c0,2.9-0.7,5.2-2.2,6.9c-1.5,1.6-3.6,2.5-6,2.5c-1.6,0-3-0.4-4.3-1.1
						c-1.2-0.7-2.2-1.8-2.9-3.3c-0.7-1.4-1-3-1-4.9c0-2.9,0.7-5.2,2.2-6.9c1.5-1.6,3.4-2.5,6-2.5c2.5,0,4.5,0.8,6,2.5
						C300.5,785.8,301.4,788.1,301.4,790.9z M287.6,790.9c0,2.3,0.4,4,1.4,5.2s2.3,1.8,4,1.8c1.8,0,3.2-0.5,4.1-1.8
						c1-1.2,1.4-2.9,1.4-5.2s-0.4-4-1.4-5.2s-2.3-1.8-4.1-1.8c-1.8,0-3.2,0.5-4,1.8C288,786.9,287.6,788.7,287.6,790.9z"/>
					<path class="st6" d="M318.8,795c0,1.6-0.7,3-1.9,3.8c-1.2,1-3,1.4-5.2,1.4c-2.3,0-4.3-0.4-5.6-1.1v-2.5
						c0.8,0.4,1.8,0.8,2.7,1.1c1,0.3,1.9,0.4,2.9,0.4c1.4,0,2.5-0.3,3.3-0.7c0.8-0.4,1.1-1.1,1.1-2.1c0-0.7-0.3-1.2-1-1.8
						c-0.5-0.5-1.8-1.1-3.6-1.8c-1.6-0.7-2.9-1.1-3.6-1.6c-0.7-0.5-1.2-1-1.5-1.6c-0.4-0.5-0.5-1.2-0.5-2.1c0-1.5,0.5-2.6,1.8-3.4
						c1.2-0.8,2.9-1.2,4.9-1.2c1.9,0,3.8,0.4,5.6,1.2l-1,2.2c-1.8-0.7-3.4-1.1-4.9-1.1c-1.2,0-2.2,0.1-2.9,0.5s-1,1-1,1.6
						c0,0.5,0.1,0.8,0.4,1.2c0.3,0.3,0.7,0.7,1.2,1s1.6,0.7,3.2,1.4c2.2,0.8,3.6,1.5,4.3,2.3C318.5,792.8,318.8,793.9,318.8,795z"/>
					<path class="st6" d="M330.2,798c0.5,0,1,0,1.4-0.1s0.8-0.1,1.1-0.3v2.1c-0.3,0.1-0.7,0.3-1.2,0.4c-0.5,0.1-1.1,0.1-1.5,0.1
						c-3.4,0-5.2-1.8-5.2-5.5V784h-2.6v-1.4l2.6-1.1l1.1-3.8h1.5v4.1h5.2v2.1h-5.2v10.6c0,1.1,0.3,1.9,0.8,2.5
						C328.6,797.8,329.4,798,330.2,798z"/>
					<path class="st6" d="M345,800.2c-2.6,0-4.8-0.8-6.3-2.5c-1.5-1.6-2.3-3.8-2.3-6.7s0.7-5.2,2.2-6.9c1.4-1.6,3.3-2.6,5.8-2.6
						c2.2,0,4,0.7,5.4,2.2c1.4,1.5,1.9,3.4,1.9,5.9v1.8h-12.5c0,2.1,0.5,3.7,1.6,4.8c1,1.1,2.5,1.6,4.3,1.6c1.9,0,3.8-0.4,5.8-1.2
						v2.5c-1,0.4-1.9,0.7-2.7,1C347.4,800.4,346.2,800.2,345,800.2z M344.4,783.9c-1.4,0-2.6,0.4-3.4,1.4s-1.4,2.2-1.5,3.8h9.3
						c0-1.6-0.4-3-1.1-4C346.9,784.4,345.8,783.9,344.4,783.9z"/>
					<path class="st6" d="M369.8,797.5h-0.3c-1.2,1.8-3.2,2.7-5.6,2.7c-2.3,0-4.1-0.8-5.5-2.5c-1.4-1.6-1.9-3.8-1.9-6.9
						c0-3,0.7-5.2,1.9-6.9c1.4-1.6,3.2-2.5,5.5-2.5c2.5,0,4.3,0.8,5.6,2.6h0.3l-0.1-1.2v-1.2v-7.3h2.7V800h-2.2L369.8,797.5z
						 M364.2,798c1.9,0,3.2-0.5,4-1.5s1.2-2.6,1.2-4.9V791c0-2.6-0.4-4.4-1.2-5.5s-2.2-1.6-4.1-1.6c-1.6,0-2.7,0.7-3.7,1.9
						c-0.8,1.2-1.2,3-1.2,5.2c0,2.3,0.4,4,1.2,5.2C361.5,797.4,362.6,798,364.2,798z"/>
					<path class="st6" d="M389.5,775.9h6.7c3.2,0,5.5,0.4,6.9,1.4s2.2,2.5,2.2,4.5c0,1.4-0.4,2.6-1.2,3.6s-1.9,1.5-3.4,1.8v0.1
						c3.6,0.7,5.5,2.5,5.5,5.8c0,2.2-0.7,3.8-2.2,5.1c-1.5,1.2-3.4,1.8-6,1.8h-8.4v-24.1H389.5z M392.4,786.2h4.5
						c1.9,0,3.4-0.3,4.3-1c0.8-0.5,1.2-1.6,1.2-3.2c0-1.4-0.5-2.3-1.4-2.9c-1-0.5-2.5-1-4.5-1h-4.1V786.2z M392.4,788.6v8.9h4.9
						c1.9,0,3.4-0.4,4.4-1.1c1-0.7,1.5-1.9,1.5-3.6c0-1.5-0.5-2.6-1.5-3.3s-2.5-1.1-4.5-1.1h-4.8L392.4,788.6L392.4,788.6z"/>
					<path class="st6" d="M409.2,782h2.9l4,10.3c0.8,2.3,1.4,4,1.6,5.1h0.1c0.1-0.5,0.4-1.5,1-2.9c0.4-1.4,1.9-5.5,4.4-12.5h2.9
						l-7.7,20.5c-0.8,2.1-1.6,3.4-2.7,4.3c-1,0.8-2.3,1.2-3.7,1.2c-0.8,0-1.6-0.1-2.5-0.3v-2.2c0.5,0.1,1.2,0.1,2.1,0.1
						c1.9,0,3.2-1.1,4-3.2l1-2.6L409.2,782z"/>
				</g>
			</g>
		</g>
		<g>
			<g>
				<path class="st7" d="M234.1,142.6c0-1.1,1-2.1,2.2-2.1h10.9c1.2,0,2.2,1,2.2,2.1v60.7h30c1.2,0,2.2,1,2.2,2.1v8.9
					c0,1.1-1,2.1-2.2,2.1h-43c-1.2,0-2.2-1-2.2-2.1v-71.7H234.1z M347.9,139.4c23.5,0,42.3,17.5,42.3,39s-18.8,38.9-42.3,38.9
					s-42.2-17.2-42.2-38.9C305.7,156.9,324.4,139.4,347.9,139.4z M347.9,203.3c14.8,0,27.1-11.1,27.1-24.7c0-13.6-12.2-25-27.1-25
					c-14.8,0-26.9,11.4-26.9,25C320.9,192.2,333,203.3,347.9,203.3z M461,139.4c11.8,0,20.5,3.4,28.4,10c1.1,0.8,1.1,2.2,0.1,3
					l-7.1,6.9c-0.8,0.8-2.1,0.8-2.9,0c-4.9-4-11.5-6.3-18.1-6.3c-15.1,0-26.2,11.5-26.2,25.1c0,13.5,11.3,25,26.4,25
					c7,0,13.1-2.5,18-6.2c1-0.8,2.2-0.7,2.9,0l7.3,6.9c1,0.8,0.7,2.2-0.1,2.9c-8,7.1-18.1,10.4-28.6,10.4
					c-23.5,0-42.5-17.2-42.5-38.9C418.5,156.9,437.5,139.4,461,139.4z M513.1,213.5l36.6-72.8c0.4-0.7,1-1.2,2.1-1.2h1.2
					c1.2,0,1.6,0.5,2.1,1.2l36.3,72.8c0.7,1.4-0.3,2.7-2.1,2.7H579c-1.8,0-2.6-0.7-3.4-2.2l-5.8-11.7h-35.2l-5.8,11.7
					c-0.4,1.1-1.5,2.2-3.4,2.2h-10.3C513.3,216.4,512.4,214.8,513.1,213.5z M563.9,190.4l-11.8-23.8h-0.4l-11.5,23.8H563.9z
					 M620.7,142.6c0-1.1,1-2.1,2.2-2.1h10.9c1.2,0,2.2,1,2.2,2.1v60.7h30c1.2,0,2.2,1,2.2,2.1v8.9c0,1.1-1,2.1-2.2,2.1h-43
					c-1.2,0-2.2-1-2.2-2.1v-71.7H620.7z"/>
				<g>
					<path class="st7" d="M352.8,501.9h-31.6c-1.4,0-2.3,1.1-2.3,2.3v81.2c0,1.2,1.1,2.3,2.3,2.3h31.6c25.7,0,46.9-19.2,46.9-43.2
						C399.7,521.2,378.5,501.9,352.8,501.9z M351.2,572.8h-15.3v-56.1h15.3c17.3,0,30,12.1,30,28
						C381.3,560.9,368.5,572.8,351.2,572.8z"/>
					<path class="st7" d="M498.8,584.7l-41.1-82.6c-0.4-0.7-1-1.4-2.3-1.4H454c-1.2,0-1.9,0.5-2.2,1.4l-41.5,82.6
						c-0.8,1.6,0.3,3.2,2.3,3.2h11.6c2.2,0,3.3-1.2,3.8-2.5l6.6-13.2h39.9l6.6,13.2c1,1.6,1.9,2.5,3.8,2.5h11.5
						C498.5,587.8,499.6,586.3,498.8,584.7z M441.2,558.5l13.1-27.1h0.4l13.3,27.1H441.2z"/>
					<g>
						<path class="st7" d="M534.9,546.4l-30.4-41c-1.1-1.6,0-3.6,2.2-3.6h13.6c1.1,0,1.8,0.5,2.2,1.1l21.3,28.2l21.3-28.2
							c0.4-0.5,1.1-1.1,2.2-1.1H581c2.2,0,3.2,1.9,2.2,3.6l-30.8,40.8v39.2c0,1.2-1.2,2.3-2.5,2.3h-12.2c-1.5,0-2.5-1.1-2.5-2.3v-39
							H534.9z"/>
					</g>
				</g>
				<g>
					<g>
						<g>
							<path class="st7" d="M221.6,360.4c0-6.7,0-13.5,0.1-20.1l0,0l0,0c0-0.1,0-0.4,0-0.5l0,0l0,0c0-9.3,0.1-18.6,0.1-27.9
								c-0.1,0-0.1,0-0.3,0.1c0-0.5-0.3-0.8-0.3-1.4c0.3,0,0.4-0.1,0.4-0.3c0,0,0.1,0,0.1,0.1c0-5.1,0-10.2,0.1-15.3
								c0-0.3,0-0.5,0-0.7l0,0c0-1.1,0-2.2,0-3.3V291l0,0c0-6.7,0-13.5,0.1-20.2v-0.1l0,0c0-1,0-1.8,0-2.7c-0.3-0.3,0-1.1-0.4-1.4
								c0.1,0,0.3,0,0.3,0v0.1c0-4,0-8,0-12c-0.4,0-0.7,0-1.1,0c0,0.1,0,0.3,0,0.4c-0.3-0.1-0.3-0.3-0.4-0.4c-2.3,0-4.7,0-7,0
								c0.1,0.4-0.3,0.8,0.1,0.8c-0.1,0.1-0.4,0.1-0.7,0.3c0.1-0.3-0.3-1,0.4-1.1c-1.4,0-2.6,0-4,0c0,0.3-0.3,0.3,0.1,0.3
								c-0.1,0.1-0.1,0.4-0.4,0.3c0.1-0.1-0.1-0.5,0.3-0.7c-0.1,0-0.1,0-0.3,0c0,0.1-0.1,0.3-0.1,0.3c-0.1-0.1-0.1-0.1-0.1-0.3
								c-2.6,0-5.2,0-7.8,0c0.1,0.3,0.3,0.7,0,0.7c0.1,0.5,0.5,0.5,0.3,1.2c-0.3,0-0.4,0-0.7,0c0.4-0.3,0.5-1.2-0.3-1.4
								c0.1-0.3,0.4-0.1,0.7,0c0-0.3-0.1-0.4-0.3-0.5c-2.6,0-5.2,0-7.8,0c-0.1,0.1-0.3,0.3-0.1,0.3c0,0.3-0.3,0-0.3-0.3
								c-1.9,0-3.8,0-5.8,0c0,0.1,0,0.3,0,0.4c-0.1,0-0.1-0.3,0-0.3c-0.1,0-0.1-0.1-0.3-0.1c-1.4,0-2.6,0-4,0l-0.1,0.1v-0.1
								c-1.1,0-2.2,0-3.2,0c0,0.1,0.1,0.4,0.3,0.4c-0.4,0.3-0.7,0-0.8-0.3v-0.1c-2.3,0-4.8,0-7.1,0c0,0.3,0,0.5,0.1,1
								c-0.3,0.3-0.7,0.1-1,0.1c0-0.4-0.1-0.7-0.1-1c-0.3,0-0.7,0-1,0c0,1.1,0,2.1,0,3.2v0.1l0,0c0,1.1,0,2.3,0,3.4
								c0.1,0.1,0.3,0.3,0.4,0.3c0.1,0.3-0.1,0.1-0.4,0.3c0,1,0,1.9,0,2.7c0.3,0.4,0.4,1,0.1,1.4c-0.1-0.1-0.1-0.1-0.3-0.3
								c0,5.1,0,10,0,15.1c0,0.1,0.1,0.1,0.1,0.3c-0.1,0-0.1,0-0.1,0c0,2.6,0,5.2,0,7.8c0.1,0,0.1-0.1,0.3,0c0.1,0.1,0.1,0.7,0,0.8
								c-0.1-0.1-0.3-0.1-0.3-0.4c0,1.4,0,2.6,0,4c0.1,0.3,0.1,0.5,0,0.8c0,1.1,0,2.3,0,3.4c0.1,0.4,0.3,1,0.1,1.2l0.2,0.2
								c0,1,0,1.9,0,3c0.4,0.4,0.4,1.1,0.4,1.6c-0.3,0-0.4,0-0.4-0.1c0,9.2-0.1,18.6-0.1,27.8c0,0,0.1,0.1,0.3,0.1
								c-0.3,0.4,0.1,1-0.3,1.2l0,0c0,1,0,1.9,0,2.7l0,0c0.1,0.4,0.7,1,0.3,1.5c-0.1,0-0.3,0-0.4-0.1c0,0.8,0,1.6,0,2.5
								c-1.8,0.1-3.7,0.3-5.5,0.4c0,0.3-0.5,0.1-0.8,0.3v-0.1c-1.1,0.1-2.2,0.1-3.2,0.3c-0.1,0.3-0.4,0.4-0.8,0.3
								c0-0.1,0-0.1-0.1-0.1c-0.5,0-1.1,0.1-1.6,0.1c0,0.8,0.7,1.6,0.1,2.3c-0.5-0.5-0.5-1.5-0.5-2.3c-0.5,0-1.1,0.1-1.5,0.1
								c-0.1,0-0.1,0-0.3,0c-0.7,0-1.4,0.1-2.1,0.1c0.5,0.3,0.5,1.4,0.7,2.2c-0.1,0-0.1-0.1-0.1-0.3c-0.1,0.1-0.1,0.4-0.5,0.3
								c-0.3-1.1,0.1-1.8-0.1-2.3c-0.4,0-1,0-1.4,0.1c-0.1,0-0.3,0-0.4,0c-0.5,0-1.2,0.1-1.8,0.1c0.3,0.4,0.5,1.2,0.5,2.1
								c-0.1,0.3-0.5,0.3-1,0.3c0.1-0.8-0.1-1.5-0.1-2.2c-1.1,0.1-2.2,0.1-3.3,0.3c0.1,0.7,0,1.6-0.1,2.3c-1-0.1-1-1.2-0.8-2.2
								c-1.1,0.1-2.2,0.1-3.4,0.3c0.1,0.7,0.3,1.2,0.1,2.1c-1,0.3-1.1-1.9-0.8-1.9c0,0,0-0.1-0.1-0.1c-1.4,0.1-2.7,0.1-4,0.3l0,0
								l0,0c-1.4,0.1-2.6,0.1-4,0.3c0.4,0.4,0.7,1.4,0.3,1.9c-0.8,0-0.8-1.2-0.7-1.9c-1.4,0.1-2.6,0.1-4,0.3
								c0.4,0.5,0.4,1.2,0.4,1.8c-0.1,0-0.4,0-0.5,0c0.1-0.7-0.3-1.2-0.1-1.8c-1.1,0.1-2.3,0.1-3.4,0.3c0,0.3,0.1,0.7,0.5,1
								c-0.1,0.4-0.4,0.5-0.4,1c-0.3,0.1-0.4-0.5-0.4,0c-0.1-0.4-0.1-1.1-0.3-1.6c-0.1,0.3-0.3,0.1-0.1-0.1
								c-1.2,0.1-2.5,0.1-3.6,0.3c0.1,0.5,0.3,1.1,0.4,1.5c-0.1,0.1-0.4,0.3-0.7,0.3c-0.1-0.7-0.1-1.1-0.3-1.6
								c-1.2,0.1-2.5,0.1-3.8,0.3c0.1,0.5,0.1,1,0,1.4c-0.4-0.1-0.3-1-0.3-1.1c-0.1,0-0.3-0.1-0.3-0.3c-1.1,0.1-2.2,0.1-3.3,0.3
								c0.1,0.4,0,1,0,1.4c-0.5-0.1-0.5-0.7-0.7-1.2c-1.1,0.1-2.2,0.1-3.3,0.3c0-6.6,0-13.2,0-19.8c-0.1,0-0.1,0.1-0.1,0.1
								c-0.3,0-0.1-0.4-0.3-0.3c0.1-0.3,0.3-0.3,0.5-0.3c0-5.1,0-10.2,0-15.3l0,0l0,0c0-1.9,0-3.8,0-5.8l0,0c-0.1,0-0.1-0.1,0-0.1
								c0-0.4,0-0.8,0-1.2c0,0,0,0-0.1,0c-0.1-0.5,0-0.8,0.1-1.1c0-0.8,0-1.5,0-2.3c-0.1,0-0.3-0.1-0.4-0.3c0-0.1,0-0.1,0.1-0.1
								c0-0.1,0-0.1,0-0.3c0.1,0,0.1,0.3,0.3,0.3l0,0c0-0.1,0-0.3,0-0.4c-0.1-0.1-0.3-0.3-0.3-0.5c0.1,0,0.3,0,0.3,0l0,0
								c0,0-0.3-0.1-0.1-0.4h0.1c0-0.3,0-0.5,0-0.8l0,0c-0.1-0.1-0.3-0.1-0.4-0.1c0-0.1,0.1-0.1,0.3-0.1c0.1-0.1,0.3-0.3,0.3-0.5
								l0,0c0-0.5,0-1,0-1.5l0,0c0,0,0,0,0-0.1s0-0.1,0-0.3l0,0c-0.3,0.1,0.1-0.5-0.1-0.3c0-0.3,0-0.5-0.1-1.1c0.1,0,0.3,0,0.3,0
								c0-0.7,0-1.2,0-1.9H108c0.4-0.5-1-1.8,0.1-2.3c-0.1-0.3-0.1-0.1-0.4-0.1c0-0.3,0.3-0.3,0.5-0.4c0-0.7,0-1.2,0-1.9
								c-0.1,0-0.1,0-0.1,0s0-0.5,0.1-0.7l0,0c-0.5-0.4-0.5-1.2-0.1-1.8c0,0,0,0,0.1,0c0-0.5,0-1.1,0-1.6c-0.1-0.1-0.3-0.8-0.1-1.2
								h0.1v-0.1c-0.1,0-0.3,0.1-0.4,0c-0.1-0.5,0.3-0.8,0.1-1.2c0.1,0,0.3-0.1,0.3-0.3c0-0.1,0-0.3,0-0.4c-0.1,0-0.3,0.1-0.1,0.3
								c-0.3,0,0-0.4,0-0.4c0.1,0,0.1,0,0.1,0c0-0.5,0-1,0-1.5c-0.1-0.3-0.4-0.7-0.5-0.8c0.4-0.4,0.4-1.1,0-1.5
								c0.3,0.5,0.4-0.1,0.5-0.4c0-0.1,0-0.4,0-0.5c-0.1,0-0.4-0.1-0.5-0.1c0-0.3,0.4-0.8,0.1-1c0.1-0.3,0.1-0.1,0.4-0.1l0,0
								c0-0.1-0.3-0.1-0.3-0.5c0.1,0,0.1,0,0.3,0.1c0-0.3,0-0.4,0-0.7c-0.1,0-0.3-0.1-0.3-0.1c0-0.1,0.1-0.1,0.3-0.1l0,0
								c0-0.1-0.4,0-0.4-0.3c0-0.1,0.3,0,0.4-0.1c0-0.4,0-1,0-1.4c-0.1,0-0.1,0-0.3,0c0.1-0.3,0.1-0.7-0.3-0.5
								c-0.3-0.4,0.4-0.5,0.1-0.5c0-0.1,0.1,0,0.1,0c0.1,0,0.3-0.1,0.3-0.3c0.1,0,0.1,0.1,0.1,0.1c0-1.1,0-2.1,0-3.2
								c-0.1,0-0.4-0.1-0.7,0c0-1.2-0.1-1.5-0.1-2.2c0.8,0.3,0.4,1.2,0.7,2.1h0.1c0-0.1,0-0.3,0-0.4c-0.1,0-0.1-0.1-0.1-0.3h0.1
								c0-1.2,0-2.5,0-3.7c-0.1,0-0.3,0.1-0.5,0.1c-0.1-0.1,0-0.3-0.3-0.3c0-0.4,0.3-0.3,0.3-0.5c-0.3,0.3-0.3-0.7-0.3-0.8
								c0.5,0,0.5,0.7,0.8,1c0-1.1,0-2.2,0-3.3c-0.5,0-1.1,0-1.6,0v0.1c-0.3,0-0.4-0.1-0.8-0.1c0.5,0.1,0.4,0.4,0.1,0.8
								c0.3,0.1,0.3,0.4,0.4,0.7c-0.1,0.1-0.3,0.4-0.7,0.3c0-0.7,0-1.4-0.1-1.9c-0.4,0-1,0-1.4,0c0,0,0.1,0,0.1,0.1
								c-0.1,0.3-0.3,0.1-0.4-0.1c-1.2,0-2.5,0-3.8,0c-0.1,0-0.1,0.1-0.3,0c0.1,0.3,0.3-0.1,0.4,0.1c0,0.3-0.4,0-0.5,0.1
								c0-0.1,0-0.1-0.1-0.3c-1.1,0-2.2,0-3.3,0c0,0,0,0.1,0.1,0.1c-0.3,0.1-0.3,0-0.4-0.1c-1.2,0-2.6,0-3.8,0c0,0.1,0,0.4,0,0.5
								c-0.1,0-0.3,0-0.4,0c-0.1-0.1,0-0.4,0.1-0.5c-1.2,0-2.5,0-3.7,0c0,0.3,0,0.4,0,0.7c-0.4-0.1-0.4-0.4-0.3-0.7
								c-1.1,0-2.1,0-3.2,0c0.1,0.1,0.1,0.4,0.1,0.8c-0.4,0-0.3-0.4-0.3-0.8c-1.4,0-2.9,0-4.3,0c0.1,0.1,0.3,0.1,0.3,0.4
								c-0.1,0.4-0.1,0.1,0,0.5c-0.1-0.3-0.5-0.5-0.7-1c-1.2,0-2.5,0-3.7,0c0,0.1,0.1,0.3,0,0.4c0.4-0.3,0.4,0,0.4,0.4
								c-0.1,0.4,0-0.4-0.3-0.3c-0.3,0,0,0.4-0.1,0.5c-0.5-0.1-0.1-0.8-0.3-1.1c-6.7,0-13.5,0-20.2,0c0,16.5,0,33,0,49.5
								c0.1-0.3,0-0.4,0.3-0.7c0.3,0.1,0,0.7-0.3,0.7c0,43.2,0,86.2,0,129.3c0.1-0.1,0.4-0.1,0.4,0s-0.1,0.1-0.1,0
								c0,0.3-0.1,0.3-0.3,0.4c0,0.4,0,1,0,1.4h0.1c0,0.1-0.1,0.3-0.1,0.4c0,2.3,0,4.5,0,6.9c0,0,0.1-0.1,0.3-0.1
								c0,0.3,0,0.1,0.1,0.3c-0.3,0.1-0.3,0.1-0.4,0.1c0,0.5,0,1.1,0,1.6l0,0l0,0c0,1.8,0,3.6,0,5.4v0.1c0,0.5,0,1,0,1.5
								c0.1,0,0.1,0,0.3,0c0,0.1-0.1,0.3-0.3,0.4c0,2.3,0,4.5,0,6.9c0.4-0.4,0.7-0.5,1.2-0.7c0.1,0.5-1,0.8-1,1.4
								c-0.1,0-0.3,0.1-0.3,0.1c0,2.7,0,5.5,0,8.2c0.1-0.1,0.3-0.3,0.3-0.4c0.1,0,0.1,0,0.3,0c0,0.3-0.4,0.5-0.4,1
								c-0.1,0-0.1,0-0.3,0.1c0,2.3,0,4.7,0,6.9c0.1,0,0.1,0,0.3,0c-0.1,0.1-0.1,0.3-0.3,0.4c0,5.5,0,11.1,0,16.8
								c0.3-0.3,0.5-0.4,1-0.7c0,0.1,0.1,0.1,0.1,0.1c0,0.1-0.1,0.1-0.1,0.1c0.1,0.1-0.1,0.5-0.3,0.8c-0.3,0-0.5,0.1-0.7,0.1
								c0,0.4,0,1,0,1.4c0,0,0,0,0.1-0.1c0.1,0.3-0.3,0.3,0.1,0.5c-0.1,0-0.1,0-0.1,0c0,2.3,0,4.7,0,7c0.1-0.1,0.3,0,0.5-0.1
								c-0.1,0.1-0.3,0.5-0.5,0.5c0,2.5,0,4.8,0,7.3c0.1-0.3,0.5-0.4,1-0.5c0.1,0.3,0,0.4-0.1,0.7c4.3-1,8.5-2.1,12.9-3
								c-0.1,0-0.3,0-0.4-0.1c0-0.5,1.1-1.2,1.5-1.1c-0.1,0.4-0.7,0.8-1,1.2c2.6-0.5,5.2-1.2,7.8-1.8c0.1-0.1,0.3-0.1,0.4-0.3
								c0,0,0,0.1-0.1,0.1c1.6-0.4,3.3-0.7,4.9-1.1c-0.1,0-0.1,0-0.1-0.1c0.1,0,0.1-0.1,0-0.1c0.1-0.3,0.7-0.5,0.7-0.7
								c0.3,0.1,0,0.7-0.4,0.8c3.3-0.7,6.7-1.5,10-2.2l0,0c1.6-0.4,3.3-0.7,5.1-1.1c0-0.3,0.4-0.4,0.4-0.7c0.1,0,0.1,0.1,0.3,0.3
								c-0.1,0.1-0.3,0.1-0.3,0.3c-0.1-0.1-0.1,0-0.3,0.1c3.2-0.7,6.3-1.4,9.5-2.1c0-1.4,0-2.9,0-4.3c0,0.1-0.1,0.3-0.4,0.4
								c-0.4-0.1,0-0.4-0.3-0.4c0-0.4,0.4-0.4,0.7-0.4c0-2.7,0-5.5,0-8.4c-0.3,0-0.5,0.1-0.7,0c0.3-0.3,0.4-0.7,0.8-1
								c0-0.4,0-0.7,0-1.1c-0.1,0-0.1,0-0.3-0.1c0.1,0,0.1-0.1,0.3-0.3c0-2.5,0-5.1,0-7.6c-0.3,0.3-0.7,0.4-0.8,1
								c-0.3,0.1-0.3-0.3-0.4-0.4c0.3-0.1,0.8-0.8,1.2-1c0-0.5,0-1.1,0-1.6c-0.1,0.1-0.1,0.1-0.3,0.3c-0.3,0-0.3-0.1-0.4-0.4
								c0.3-0.3,0.4-0.4,0.7-0.5c0-0.3,0-0.5,0-1c-0.1,0-0.3-0.1-0.3-0.3c0.1,0,0.3-0.1,0.3-0.1c0-1.6,0-3.4,0-5.1
								c-0.1,0.1-0.3,0.3-0.1,0.4c-0.4,0.1-0.7,0.3-1,0.3c-0.1-0.3,0.5-0.5,0.7-0.5c0.2,0,0.1-0.4,0-0.4c0-0.1,0.3-0.3,0.5-0.4
								c0-0.3,0-0.5,0-0.8c-0.1,0-0.3,0.1-0.4,0.1c-0.1-0.3,0.1-0.5,0.4-0.7c0-2.3,0-4.5,0-6.9c-0.3,0.3-0.5,0.4-0.8,0.7
								c0.1-0.1,0-0.4-0.3-0.7c0.3-0.1,0.7-0.3,0.7-0.5c0,0.3,0.1,0.1,0.3,0.1c0.1-0.1-0.1,0,0-0.3c0.1,0,0.1-0.1,0.3-0.1
								c0-0.3,0-0.4,0-0.7c-0.3,0-0.5,0-0.7-0.3c0.1-0.1,0.4-0.4,0.7-0.7c0-0.4,0-1,0-1.4l0,0l0,0c0-1,0-1.9,0-2.9
								c-0.4,0.1-1.1,0.5-1.2,1c-0.4,0-0.1-0.3-0.1-0.4c-0.3,0.4-0.3-0.5,0-0.5c0,0.1,0.1,0.1,0.1,0.3c0.1-0.4,0.5-0.7,1-1
								c0.3,0.4,0,0.5,0.1,0.8c0-0.5,0-1.1,0-1.8c0,0.1-0.1,0.3-0.1,0.4c0-0.3-0.4-0.3-0.4,0c-0.8-0.5,0.3-0.7,0.7-1.2
								c0-0.3,0-0.7,0-1c-0.1,0-0.1,0-0.3,0.1c-0.1-0.1-0.3-0.4-0.3-0.5c0.1,0,0.3-0.1,0.4-0.1c0-1.6,0-3.4,0-5.1
								c-0.3,0.3-0.7,0.4-1,0.7c0.5,0.1-0.1,0.4-0.3-0.1c0.3-0.1,0.7-0.5,0.8-0.8c0.3-0.1,0.4,0.1,0.5,0c0-0.4,0-0.8,0-1.4
								c-0.3,0.1-0.5,0.3-0.7,0.4c-0.1-0.1-0.1-0.3-0.3-0.5c0.4,0.1,0.7-0.3,1-0.5c0-0.4,0-0.8,0-1.1c-0.1,0-0.1-0.1-0.3-0.4
								c0.1,0,0-0.1,0-0.1c0.1,0,0.3-0.1,0.3,0c0-1.1,0-2.1,0-3.2c0,0,0,0-0.1-0.1c-0.4,0.4-1.1,1-1.5,1.5c-0.3,0.1-0.5-0.5-0.1-0.7
								c0.4-0.3,0.4-0.4,0.7-0.4c-0.3-0.4,0.3,0,0.4-0.1c0,0,0.1-0.3,0-0.3c0.1-0.1,0.4,0,0.7-0.1c0-1,0-1.9,0-2.9
								c-0.1,0-0.3,0.1-0.3,0.1c-0.1-0.3-0.3-0.1-0.3-0.4c0.3-0.1,0.4-0.3,0.5-0.3c0-2.1,0-4.1,0-6.2c-0.1,0.1-0.3,0.3-0.4,0.4
								c0-0.1,0-0.1,0-0.3c-0.3,0.1,0,0.3,0,0.4c-0.1,0-0.3-0.3-0.4-0.1c-0.3-0.8,0.8-0.7,0.8-1.4h0.1c0-0.3,0-0.7,0-1
								c-0.1,0.1-0.4,0.3-0.5,0.3c-0.1-0.3-0.1-0.4-0.1-0.5c0.1-0.1,0.5-0.1,0.7-0.3c0-1,0-2.1,0-3c0,0-0.1,0.1-0.3,0.1
								c0-0.1,0.4-0.3,0.1-0.5h0.1c0-1,0-2.1,0-3c-0.1,0.3-0.5,0.4-0.8,0.4c-0.1-0.1,0-0.3,0-0.4c0.1-0.1,0.1,0.1,0.4,0.1
								c0.1-0.1,0-0.3,0-0.4c0.1,0.1,0.3,0,0.5,0c0,0,0,0,0,0.1c0-0.4,0-1,0-1.4c0,0,0,0-0.1,0c-0.1-0.1-0.3-0.3-0.4-0.3
								c0-0.3,0.1-0.4,0.4-0.5c-0.1,0.1,0,0.1,0,0.1c0-0.1,0-0.3,0-0.3l0,0l0,0c0-0.4,0-0.8,0-1.2c0-0.1-0.1-0.1-0.1-0.3h0.1
								c0-1.5,0-3,0-4.7c-0.4,0-0.4,0-0.8,0.4c0-0.3-0.1-0.4,0.1-0.7c0.1,0.4,0.4,0,0.3-0.1c0.1,0,0.3,0.3,0.4,0.4
								c0-0.1,0-0.1,0-0.3c-0.1,0-0.3-0.3-0.3-0.4c0.1,0,0.1,0.1,0.3,0.1c0-0.4,0-1,0-1.4c-0.1,0.1-0.3,0-0.3,0.1
								c-0.1-0.1,0-0.3,0.1-0.4c0,0.1,0.1,0.1,0.1,0.3c0-1.2,0-2.6,0-3.8c0.3,0,0.7-0.1,1-0.1l-0.1-0.1c0.1,0,0.1-0.1,0.3-0.1
								c0,0.3,0.3,0.1,0.3,0.3c0.8-0.1,1.6-0.1,2.5-0.3l0,0h0.1c2.3-0.3,4.5-0.5,6.9-0.8c0.1,0,0.3-0.1,0.4-0.3
								c0,0.1-0.1,0.1-0.1,0.3c2.2-0.3,4.3-0.5,6.5-0.8c0.3-0.1,0.4-0.1,0.8-0.4c0.3-0.1-0.4,0.3,0,0.3c7.7-1,15.4-1.8,23.1-2.6
								c-0.1-0.5,0-1.6,0.1-1.8c0.5,0.1,0.5,0.8,0.8,1.1c0,0.3-0.1,0.4-0.1,0.5c1.2-0.1,2.3-0.3,3.6-0.4c0-0.1,0-0.4,0.1-0.5
								c0.3,0,0.4,0.3,0.4,0.5c5.1-0.5,10.2-1.1,15.4-1.6c0,2.5,0,5.1,0,7.6l0,0c0.1,0.4-0.1,0.8,0.3,1.4c-0.1,0-0.1,0-0.3,0.1
								c0,1,0,2.1,0,3c0.1,0,0.1,0,0.3,0c0,0.4,0,1.6-0.1,2.1c-0.1,0-0.1-0.1-0.1-0.1c0,1.4,0,2.6,0,4c0.1,0,0.3,0,0.3-0.1
								c0.1,0.1,0,0.3-0.1,0.3c0.1,0.3,0.3-0.1,0.4,0c0,0.1,0,0.1,0.1,0.3c0,0.4-0.3,0.3-0.3,0.5c-0.3,0,0-0.4,0.1-0.3
								c-0.1-0.1-0.4,0-0.5-0.3c0,5.2,0,10.4,0,15.7l0.1-0.1c0.1,0.1,0,0.3-0.1,0.4c0,2.7,0,5.5,0,8.4c0.1-0.1,0.4-0.1,0.7-0.4
								c-0.1,0.3-0.4,0.5-0.7,0.5c0,6.5,0,12.9-0.1,19.4c0.1,0,0.1,0,0.3,0c0,0.1-0.1,0.1-0.3,0.3c0,3.3,0,6.7,0,10
								c0.1-0.1,0.3-0.1,0.4-0.1c0.1,0.3-0.5,0.3-0.3,0.4c0,0,0,0-0.1,0c0,2.3,0,4.5,0,6.9c0.3-0.1,0.5-0.1,0.8-0.4
								c0.3,0.4-0.5,0.5-0.7,0.4c-0.1,0.3,0.3,0.3,0,0.4c-0.1,0-0.1-0.1-0.1-0.1c0,0.7,0,1.2,0,1.9c0,0,0,0,0.1,0
								c0.1,0.1,0,0.1-0.1,0.3c0,2.7,0,5.5,0,8.4l0,0c0,0,0.1,0.1,0.1,0.3c0.1-0.3,0.3-0.3,0.4-0.4c0.1,0.3-0.1,0.3-0.3,0.1
								c-0.1,0.1,0.3,0,0.3,0.3c-0.3,0.1-0.3,0.3-0.4,0.3c0.1,0,0.3,0.1,0.3,0.4c-0.1,0-0.3-0.1-0.3-0.4c0,0.8,0,1.8,0,2.6
								c2.9-0.5,5.8-1,8.7-1.4c-0.3,0-0.4-0.1-0.5-0.5c0.4-0.3,1,0,0.7-0.5c0.3-0.3,0.7-0.1,0.5,0c-0.1,0.3-0.1,0-0.3,0
								c-0.1,0.3,0.1,0.3,0.1,0.5c-0.1,0-0.4,0.3-0.5,0.4c0.5-0.1,1.1-0.1,1.8-0.3c0.1-0.1,0.1-0.3,0.4-0.4c0,0.1,0,0.3,0,0.3
								c13.9-2.3,27.8-4.5,41.6-6.6c0.1-39,0.4-78.2,0.5-117.4C221.5,360.9,221.5,360.7,221.6,360.4z"/>
						</g>
					</g>
					<g>
						<g>
							<path class="st7" d="M796.6,394C796.7,394,796.7,394,796.6,394c-0.4-1.2-1-2.3-1.5-3.4c-0.1,0.1-0.3,0.3-0.5,0.4
								c-0.1-0.1,0.1-0.5-0.1-0.4c0-0.3,0.3-0.4,0.4-0.5c-0.5-1.2-1.1-2.3-1.6-3.6c0,0.3-0.4,0.5-0.7,0.5c0-0.1,0.1-0.1,0.3-0.3
								c0-0.1-0.1-0.1-0.1,0c0.1-0.1,0.3-0.3,0.5-0.3c-0.1-0.1-0.1-0.4-0.3-0.5c5.5-3.7,10.2-7.8,14.3-12.4c0-0.1,0-0.1,0.1-0.3h0.1
								c1.4-1.5,2.7-3.2,3.8-4.8c-0.3-0.3-0.4-0.5-0.5-1c0.3,0,0.4,0.4,0.5-0.1c0.1,0.1,0.1,0,0.4,0.3c0.3-0.1,0.1-0.3,0.5-0.4
								c-0.1-0.3-0.4,0.3-0.4-0.1c0.3-0.1,0.5-0.3,0.8-0.4c0,0.1-0.1,0.1-0.1,0.3c0,0,0,0,0,0.1c3.4-4.8,6.3-10,8.5-15.5l-0.1-0.1
								l0,0l0,0h-0.1c0-0.1,0.1-0.1,0.1,0l0,0c0.1-0.1,0.3-0.3,0.3-0.3c0.3-0.7,0.5-1.5,0.8-2.2c0-0.1,0-0.1,0.1-0.3
								c0-0.1,0.1-0.3,0.1-0.4c-0.3,0.1-0.7,0.4-0.8,0.7c-0.1-0.1-0.3-0.4-0.3-0.5c0.5,0,0.4-0.3,1-0.7c0.1,0.3,0.4,0,0.4,0.1
								c4.7-12.8,7-26.9,8-41.9c-0.1-0.1-0.1-0.1-0.3-0.3c0-0.1,0.1-0.1,0.3-0.1c0.3-4.5,0.5-9.1,0.7-13.7c-0.3,0.1-0.5,0-0.5-0.3
								c0-0.1,0.3-0.3,0.1-0.4c0.3,0.1,0.3,0.1,0.4,0.1c0.1-5.4,0.1-10.9,0.3-16.5c-0.1,0-0.1-0.1-0.1-0.3h0.1c0-2.3,0-4.7,0-7
								c-0.1,0.1-0.3,0-0.4-0.3c0.1-0.1,0.3-0.1,0.4-0.1c0-2.5,0-4.9,0-7.4c-6.5,0-12.8,0-19.2,0c-0.1,0.1-0.3,0.1-0.4,0
								c-0.8,0-1.8,0-2.6,0c0,0,0,0-0.1,0c0,0.1,0.1,0,0.3,0c0.1,0.4-0.1,0.3-0.4,0c-2.6,0-5.1,0-7.7,0c0,0.1-0.7,0.5-0.3,0.8
								c-0.3,0.1-0.5,0.3-0.8,0.5c-0.1-0.1-0.1-0.3-0.3-0.4c0.3-0.1,0.5-0.3,0.3-0.5c0.4-0.3,0.7-0.3,1.1-0.4c-1.1,0-2.2,0-3.3,0
								c-0.3,0.1-0.5,0.1-0.7,0.3c0-0.1,0-0.1,0-0.3c-0.8,0-1.8,0-2.6,0c0,0,0,0.1,0.1,0.1c-0.1,0-0.3-0.1-0.3-0.1c-2.6,0-5.4,0-8,0
								c-0.3,0.3-0.7,0.5-1.1,0.8c0-0.3,0.3-0.5,0.5-0.8c-0.7,0-1.5,0-2.2,0l0,0l0,0c-1,0-2.1,0-3,0c-0.3,0.1-0.7,0.3-1,0.3
								c0-0.1-0.1-0.1-0.1-0.3c-0.3,0-0.4,0-0.7,0c0,1.6,0,3.3,0,4.8c0.1-0.3,0.3-0.4,0.4-0.7c0.1,0.1,0,0.3-0.1,0.3
								c0.1,0.3,0.3,0.1,0.4,0.5c-0.1,0-0.5,0.1-0.7,0.3c0,0.5,0,1.1,0,1.6c0.1,0,0.3,0,0.4,0.1c-0.1,0.1-0.4,0.3-0.4,0.4l0,0v0.1
								l0,0c0,3,0,6,0,8.9c0.3-0.3,0.5-0.3,0.5-0.7c0.4-0.1,0.7,0.1,1.1,0c0,0.1-0.3,0.1-0.1,0.4c-0.1-0.1-0.3-0.1-0.5-0.3
								c-0.3,0.3,0.3,0.3,0.3,0.4c-0.3,0.3-1.1,0.4-0.7,0.7c0.4,0-0.1,0.1-0.3,0.1c-0.1-0.1-0.1-0.3-0.3-0.4c0,0.7,0,1.2,0,1.9
								c0.1-0.1,0.4-0.4,0.5-0.7c0.1,0.7,0.8-0.1,1,0.4c-0.1,0-0.5-0.3-0.4,0.1c-0.1-0.1-0.4,0-0.5-0.3c-0.1,0.1-0.3,0.8-0.1,0.8
								c0,0.3-0.7,0-0.4,0.4H779c0,0.4,0,1,0,1.4l0,0c0,0.1,0.1,0.1,0.1,0.3c-0.1,0-0.1,0.1-0.1,0.1c0,0.7,0,1.4,0,1.9
								c0,0.1,0,0.3,0,0.5c0,1.2,0,2.6-0.1,3.8c0,0,0-0.1,0.1-0.1c0.1,0.1,0.3,0.1,0.5,0.3c0.1-0.1,0-0.3-0.1-0.4
								c0.3-0.3,0.4-0.1,0.7-0.3c-0.1,0-0.3,0-0.4-0.1c0.3-0.1,0.4-0.1,0.7-0.1c0,0.3-0.1,0.7-0.1,1c-0.1,0-0.3-0.1-0.4-0.1
								c0,0.1-0.4,0.8-0.8,0.4c-0.1,0.3,0.4,0.3,0,0.5c0-0.4-0.1-0.1-0.3,0c0,0.5,0,1,0,1.5c0.1,0,0.3,0,0.4-0.3
								c0.3,0.5,0.7,0.4,1,0.1c0,0.7-1,0.7-1,1.4c-0.1,0-0.4,0-0.5,0.1c0,0.4,0,1,0,1.4c0.5-0.1,0.7,0,1.2-0.4
								c0.1,0.4-0.5,0.7-1,0.7c0.1,0.4,0,0.7-0.3,1c0,0.5,0,1.1-0.1,1.5c0,0,0,0,0.1,0c0,0.1,0,0.3-0.1,0.4
								c-0.1,1.5-0.3,3.2-0.4,4.7c0,0,0.1,0,0.3-0.1c0.1,0.3,0.3,0.4,0.4,0.7c-0.3,0-0.4-0.3-0.7-0.4c-0.3,2.5-0.5,4.9-0.8,7.3
								c0.1-0.1,0.1-0.3,0.3-0.3c0.1,0.1,1-0.3,1-0.7c0.4-0.1,0.1,0.4,0,0.7c0.3,0.1,0.3-0.4,0.5,0c-0.7,0.3-0.1,0.5-1,1
								c-0.3,0-0.1-0.1-0.1-0.3c-0.4,0.3,0,0.7-0.4,1c-0.1-0.1-0.1-0.3-0.3-0.4c-0.1,0.8-0.3,1.5-0.4,2.3c0.7-0.5,1.4-1.8,1.5-0.8
								c-0.3,0.5-0.7,1.1-1.4,1.5c0-0.1-0.1-0.3-0.1-0.3c-0.4,1.8-0.8,3.6-1.2,5.4c0.5-0.3,0.7-0.5,1.2-1c0.1,0.1-0.1,0.5,0.3,0.4
								c-0.3,0.5-0.8,0.8-1.4,1c0.5,0.3-0.3,0,0,0.4c-0.1,0-0.1,0-0.3-0.1c-0.1,0.7-0.4,1.4-0.5,2.1l0.1-0.1
								c0.1,0.3-0.3,0.5-0.1,0.8c-0.1,0-0.1-0.1-0.1-0.3c-0.1,0.7-0.4,1.4-0.7,1.9l0,0c-0.5,1.6-1.2,3.2-1.9,4.7c0.1,0,0.1,0,0.3,0
								c0.4,0.5-0.3,0.5-0.4,0.8c0-0.1-0.1-0.1-0.3-0.1c-0.1,0.1-0.1,0.4-0.3,0.5v0.1h-0.1c-0.4,0.7-0.8,1.5-1.2,2.2
								c0.1-0.1,0.3-0.3,0.4-0.4c0.1,0.8-0.4,1.6-1.4,1.9c-0.8,1.2-1.6,2.5-2.7,3.6c0.1-0.1,0.3-0.1,0.4-0.3c0,0.1-0.1,0.3,0,0.3
								c-0.7,0.4-1.1,1.6-1.8,1.8h-0.1c-1.8,1.8-3.8,3.4-6.2,4.8c-0.1,0.1-0.3,0.3-0.3,0.4c-0.1,0-0.1,0-0.3,0
								c-0.8,0.5-1.8,1-2.7,1.4l0,0c0,0,0,0-0.1,0s-0.3,0.1-0.4,0.3h0.1c-0.1,0.3-0.8,1.4-1.2,0.5c0.3,0,0.4-0.1,0.5-0.3
								c-1.9,0.8-4,1.4-6.3,1.9c0,0.3-0.4,0.5-0.5,0.7c-0.1-0.1-0.1-0.3-0.3-0.4c0,0,0.1,0,0.1-0.1c-0.7,0.1-1.5,0.3-2.2,0.4
								c-0.1,0.1-0.3,0.3-0.5,0.4c-0.1-0.1-0.1-0.1-0.1-0.3c-1.5,0.3-3.2,0.4-4.9,0.4c-0.3,0.3-0.7,0.5-1.1,0.7c0,0.3-0.7,0.8-1,0.3
								c0.4-0.1,0.8-0.5,1.2-1c-1.1,0-2.2,0.1-3.3,0c-0.4,0.3-0.7-0.3-0.8,0.3c-0.1,0-0.1-0.1-0.3-0.1l-0.1-0.1l0,0
								c-0.8,0-1.6,0-2.5-0.1c-0.1,0.1-0.3,0.1-0.4,0.1l0,0c-0.3,0-0.4,0-0.7,0c-1.2-0.1-2.5-0.1-3.7-0.3c0-1.4,0-2.9,0-4.3
								c-0.3,0.4-0.7,0.8-0.8,1.1c-0.3,0.1-0.4-0.4-0.7-0.7c0.7-0.4,1-1,1.5-1.2c0-0.5,0-1,0-1.5c-0.1,0-0.3,0.1-0.4,0.1
								c0-0.3,0.1-0.5,0.4-0.8c0-3,0-6.2,0-9.2c-0.1,0-0.3,0-0.3,0c0.1,0.4-0.7,1.1-1,0.3c0.4-0.3,1-0.7,1.4-1.2c0-0.3,0-0.7,0-1
								h-0.1c-0.3-0.3-0.4-0.5-0.5-1c0.3,0,0.4-0.1,0.7-0.4c0-1.4,0-2.9,0-4.3c-0.7,0.3-1.5,1.2-2.6,1.9c-0.3-0.3-0.3-0.4-0.4-0.8
								c0.7-0.4,2.3-2.3,3-1.4c0-1,0-1.8,0-2.7c-0.5,0.4-0.5,1.5-1.8,1.4c0.1-1,1-1.4,1.8-1.9c0,0,0,0,0,0.1c0-0.5,0-1.1,0-1.6
								c-0.3,0.3-0.5,0.5-0.8,1c-0.1-0.3-0.4-0.1-0.7-0.4c0.4-0.5,1-1,1.5-1.2c0-0.4,0-0.8,0-1.2l0,0c-0.4-0.1-0.5-0.4-0.5-0.8
								c0.3,0,0.4-0.1,0.5-0.3c0-2.9,0-5.9,0-8.8c-0.1,0-0.3,0-0.4,0c0,0.4-0.1,0.4-0.5,0.5c-0.7-1.1,0.1-1.2,1-1.6
								c0-0.5,0-1.2,0-1.8c-0.1,0-0.3,0.1-0.4,0c-0.1-0.3-0.3-0.5-0.4-0.8c0.3-0.1,0.5-0.3,0.8-0.5c0-2.2,0-4.4,0-6.6h-0.1l0.1-0.1
								c0-0.7,0-1.5,0-2.2c-0.3,0.1-0.3,0.4-0.3,0.7c-0.1,0-0.1,0,0-0.1c-0.3-0.3-0.7,0.8-1.2,0.3c-0.1-0.8,1-0.8,1.5-1.4
								c0-0.4,0-0.8,0-1.2c-0.1,0.1-0.1,0.3-0.3,0.4c0-0.7-0.5,0.1-0.7-0.5c0.4-0.1,0.7-0.5,1.1-1c0-0.5,0-1,0-1.5
								c-0.1-0.3-0.4-0.5-0.4-0.8c0.1,0,0.3-0.1,0.4-0.1c0-1.4,0-2.7,0-4.1c-0.1,0-0.3-0.3-0.4-0.1c-0.3,0.7-1,1.6-2.1,1.8
								c-0.1-0.3,0.1-0.4,0-0.7c0.8-0.8,1.8-1.2,2.5-1.6c0-0.4,0-0.8,0-1.2c-0.3,0.4-0.7,0.7-1.1,0.7c-0.1-0.3-0.3-0.5-0.4-0.8
								c0.4-0.3,1-0.7,1.1-1c0.1,0,0.3,0,0.4,0.1c0-0.4,0-0.7,0-1.1c0,0,0,0.1-0.1,0.1c-0.4-0.4-0.8-0.5-0.8-1.1
								c0.4,0.1,0.7-0.1,1-0.4c0-0.7,0-1.2,0-1.9c0,0,0,0-0.1,0c0,0,0,0,0.1-0.1c0-1.6,0-3.2,0-4.8c-0.1,0.1-0.4,0.1-0.4-0.1
								c0.1-0.1,0.3-0.1,0.4-0.1c0-0.7,0-1.4,0-2.1c-0.4,0.4-1,0.8-1.2,1.2c-0.3,0-0.4-0.3-0.5-0.4c0.4,0.1,0.3-0.3,0.5-0.5
								c0.1,0,0.1,0.1,0.1,0.3c0.1-0.3,0.3-0.4,0.1-0.8c0.3-0.1,0.5-0.3,0.8-0.4c0-0.4,0-0.8,0-1.1c-0.1,0.1-0.3,0.1-0.5,0.3
								c-0.1-0.1-0.1-0.3-0.3-0.4c0.3-0.1,0.3-0.3,0.3-0.5c0.1,0,0.4,0,0.5,0c0-0.8,0-1.6,0-2.5c0-0.1-0.1-0.3-0.1-0.3h0.1
								c0-1.5,0-2.9,0-4.4h-0.1c-0.5,0.4-1.2,0.8-1.2,1.5c-0.3,0.1-0.8-0.1-0.4,0.4c-0.4-0.1-0.4-0.8-0.5-1.1
								c0.5,0.1,0.7-0.5,1.1-0.8c-0.8,0-1.8,0-2.6,0c-0.3,0.3-0.7,0.5-0.8,0.7c-0.4-0.1,0-0.4,0.3-0.7c-1,0-2.1,0-3,0
								c-0.1,0.1-0.3,0.3-0.4,0.4c0-0.1-0.1-0.1-0.3-0.1c0-0.1,0-0.1,0.1-0.3c-0.8,0-1.5,0-2.3,0c0,0.1-0.1,0.1-0.3,0.3
								c0-0.1,0-0.1-0.1-0.3c-4.3,0-8.5,0-12.8,0c0,0-0.1,0-0.1,0.1c0,0,0,0,0-0.1c-1.1,0-2.1,0-3.2,0l0,0l0,0c-5.2,0-10.4,0-15.7,0
								c0,0.1-0.1,0.1-0.3,0.1V259c-3.2,0-6.3,0-9.5,0c0,11.4,0.1,22.8,0.1,34.4c0.3-0.1,0.4,0,0.7-0.1c0.1,0.3-0.4,0.5-0.5,0.4
								c0.1,0.3,0.1,0.4-0.1,0.7c0,3.8,0,7.7,0,11.7h0.1c0.1-0.1-0.3-0.1-0.1-0.4c0.1,0,0.1,0.1,0.3,0.1c0.1-0.1,0.1-0.3,0-0.3
								c0.1-0.1,0.4-0.3,0.8-0.3c0.4,0-0.1,0.1-0.3,0c-0.1,0.1,0,0.3,0,0.5c-0.4,0-0.5,0.1-0.4,0.5c-0.1,0-0.3-0.1-0.4-0.1v0.1
								c0,3.2,0,6.2,0,9.3c0,0,0.1,0,0.3-0.1c0,0.1,0,0.3,0.1,0.5c0,0-0.3,0-0.4,0.1c0,0.8,0,1.6,0,2.6c0,0,0.1,0.1,0.1,0.3
								c0,0,0,0-0.1,0c0,3,0,6.2,0,9.2c0,0.1,0.1,0.3,0.3,0.4c-0.1,0-0.1,0-0.1,0c0,4.1,0,8.2,0,12.2c0.4-0.1,0-0.4,0.3-0.4
								c0.3-0.1,0.7,0.3,0.8-0.3c0,0.3-0.5,1-1,1.2c-0.1-0.3,0.1-0.3-0.1-0.5c0,5.1,0,10.2,0.1,15.4c0.1,0,0.1,0,0.3,0
								c-0.1,0.1-0.1,0.3-0.3,0.4c0,7.6,0.1,15.1,0.1,22.7c0.1,0,0.1-0.1,0.3-0.3c0.1,0.1,0,0.7,0.3,0.7c-0.1,0.3-0.4,0.3-0.5,0.4
								c0.1,15.3,0.1,30.5,0.3,45.9c0,0.1-0.1,0.4,0.1,0.3c0,0.1-0.1,0-0.1,0.1l0,0c0,5.1,0,10.3,0.1,15.4h0.1c0.1,0.5-0.3,0.8,0,1
								c0,0-0.1,0-0.1,0.1c0,0.4,0,1,0,1.4c0.1,0.1,0,0.5,0,0.4l0,0v0.1h-0.1v0.1c0.1,0.1,0,0.3,0.3,0.3c-0.1,0.1-0.1,0.1-0.3,0.1
								c0,0.5,0,1.1,0,1.6c0,0,0-0.1,0.1-0.1c0.4,0.3,0.1,0.4,0.3,1c-0.1,0-0.3,0-0.4,0c0,0.5,0,1.2,0,1.8c0-0.1,0-0.1,0-0.3
								c0.1,0,0.1-0.1,0.3,0c0,0.3,0,0.3,0,0.4s-0.3,0-0.3,0.1s0.1-0.1,0.3,0c0,0.1,0,0.3,0.1,0.3c0,0.3-0.4,0.1-0.5,0.1
								c0-0.1,0.3,0,0.3-0.1s-0.3,0-0.3-0.1c0,2.2,0,4.3,0,6.5c0.1,0.1,0,0.3,0,0.5l0,0c0,0.8,0,1.6,0,2.3c0,0,0,0.1,0.1,0.1h-1.1
								c0,0.5,0,1.2,0,1.8c0,0.3,0.1,0.4,0,0.5c0,5.5,0,10.9,0.1,16.4c0.1,0,0.1,0,0.3,0.1c0,0.1-0.1,0.3-0.3,0.3c0,0.5,0,1.2,0,1.8
								l0,0c0.1,0.1,0.3,0.4,0,0.5c0.1,0,0.1,0.4,0.3,0.4c-0.1,0.1-0.1,0.1-0.3,0.1c0,0.1,0,0.3,0,0.4c4.5,0.7,9.2,1.4,13.7,2.1
								v-0.1c0.1,0,0.1,0.1,0.3,0.1c0.7,0.1,1.5,0.3,2.2,0.3c0-0.1,0-0.3-0.1-0.3c0.1-0.1,0.1-0.1,0.3-0.1c0,0.1,0,0.3,0,0.5
								c2.7,0.4,5.6,0.8,8.4,1.2c-0.1-0.1,0.1-0.3-0.1-0.3c0.1-0.4,0.5-0.4,0.7,0c0,0.3-0.3,0.3-0.5,0.3c1.2,0.1,2.6,0.4,3.8,0.5
								l0,0c0-0.1,0.1,0,0.3,0l0,0c1.9,0.3,3.8,0.5,5.6,1c0-0.1,0.1-0.3,0.3-0.3c0,0.1,0,0.3,0,0.3c5.6,1,11.3,1.8,16.9,2.7
								c-0.1-29.4-0.3-58.7-0.4-88.1c6.6,0.7,12.9,1.4,19.7,0.8c14.8,31.9,29.5,64.9,44.1,99.2c18.8,3.8,37.7,8,56.3,12.5
								c0-3.4,0-6.7,0-10.2c-16.5-38.2-33.1-74.6-49.7-109.5C797,394.7,796.8,394.3,796.6,394z"/>
						</g>
					</g>
					<g>
						<path class="st7" d="M427.3,418.9c-0.1,0-0.7-1.4-0.7-1.4c-0.8-1.6-1.5-3.3-2.3-5.1l-0.1-0.1c-1.2-2.7-37.5-82.7-39.3-86.4
							c-0.1,0-0.4,0-0.5,0c0.1-0.1,0.3-0.3,0.3-0.4c-2.3-5.1-4.7-10.3-6.9-15.4c-0.1-0.1-0.3-0.1-0.1-0.4l0,0
							c-2.5-5.5-4.9-11-7.4-16.6c-0.1-0.1-0.1-0.1-0.1-0.4l0,0c-0.8-1.9-1.8-3.8-2.6-5.8c-0.1,0.3-0.1-0.3,0-0.1
							c-4.5-10.2-9.1-19.8-13.6-30.8c-3.4,0-6.7,0-10.2,0c0.1,0,0.3,0.5,0.1,0.7c0-0.3,0-0.4-0.3-0.5l0.1-0.1c-4,0-8,0-12,0
							c-2.5,5.5-4.9,11.3-7.4,16.8l0.7,0.3c0,0.1,0.1,0.4,0.1,0.5l0,0c0,0.4-1,0.8-1.1,1.2c0,0.1-0.1,0.1,0,0c0,0.1,0,0.3-0.3,0.3
							c0,0-0.1-0.1-0.3-0.1c-0.7,1.5-1.4,3-2.1,4.5c0,0,0,0,0,0.1c0,0-0.1,0-0.1,0.1l0,0c0,0,0,0.1,0,0c0,0.1,0,0-0.1,0.1
							c-1,2.2-1.9,4.4-2.9,6.5c0,0,0,0,0,0.1c0,0,0,0-0.1,0c-0.1,0.4-0.3,0.7-0.4,1.1c0.1,0.1,0.1,0.1,0.1,0.3c-0.3,0,0,0.3-0.1,0.3
							h-0.1V288c-0.1,0.3-0.3,0.7-0.4,1c0.1,0.1,0.3,0.3,0.4,0.5c-0.1,0-0.1,0.1-0.3,0.1c0-0.3-0.1-0.1-0.3-0.3l0,0
							c-0.7,1.6-1.5,3.3-2.2,5.1c0.1,0.1,0.1,0.1,0.3,0.3c0,0.1-0.3,0.1-0.3,0.3c0-0.1,0-0.1-0.1-0.3c-0.1,0.4-0.3,0.7-0.5,1.1
							c0.4,0,0.4,0.4,0.5,0.8c-0.4,0-0.5-0.4-0.5-0.7c-1,2.2-1.9,4.4-2.9,6.6c0.1,0.1,0.3,0.4,0.3,0.7c-0.1,0-0.3-0.3-0.4-0.4
							c-0.1,0.4-0.4,0.8-0.5,1.2c0.1,0.1,0.3,0.3,0.4,0.3c-0.1,0,0,0.3-0.1,0.3c-0.1-0.1-0.3-0.3-0.4-0.4c-0.1,0.3-0.3,0.7-0.4,1
							c0,0,0.1,0,0.1,0.1h-0.1c-0.4,0.8-0.7,1.6-1.1,2.3c0,0,0,0,0.1,0.1h-0.1l0,0c0,0,0,0,0,0.1H309c-0.1,0.3-0.3,0.7-0.4,1h0.1
							c0,0.1,0.1,0.4,0.4,0.3c0.1,0.4-0.7,0.7-0.5,0.7c-0.1,0-0.1-0.1-0.3-0.1c-0.1,0.3-0.3,0.5-0.4,0.8l0,0
							c0.1,0.5,0.3,0.4,0.5,0.8c-0.1,0-0.1,0.1-0.3,0.3c0-0.3-0.1-0.3-0.3-0.3c0-0.3,0-0.4-0.1-0.4c-0.1,0.4-0.3,0.7-0.4,1.1h0.1
							c0.1,0.1,0,0.3-0.1,0.3c0-0.1-0.1-0.1-0.1-0.1c-0.5,1.4-1.1,2.6-1.8,4c0.1,0.1,0.1,0.3,0,0.5c-0.1,0-0.1,0-0.1-0.1
							c-0.1,0.4-0.4,0.8-0.5,1.2c0.1,0.1,0.3,0.1,0.3,0.4c0.1,0.1,0.3-0.3,0.4,0c-0.3,0.1-0.4,0.3-0.7,0.4c0-0.1,0-0.3-0.1-0.3
							c-0.1,0.4-0.3,0.7-0.4,1.1c0.3,0.1,0.5,0.3,0.3,0.5c0.1,0,0.3,0.3,0.5,0.1c0,0.1-0.1,0.1-0.3,0.3c-0.1-0.3-0.4-0.5-0.7-0.8
							c-0.7,1.6-1.5,3.3-2.2,4.9c0.1,0.3,0.4,0.5,0.4,0.7c-0.3,0.4-0.4,0-0.5-0.3c-0.1,0.3-0.3,0.5-0.4,0.8v0.1
							c0.1,0.3,0.4-0.3,0.5,0.1c-0.1-0.1-0.1,0-0.3,0c0.1,0,0.3,0.3,0.3,0.4c0,0,0.1-0.1,0-0.1c0.3,0,0,0.3-0.1,0.3
							c0.1,0.1,0.1-0.1,0.3-0.1c0.4,0.5-0.4,0.7-0.8,1c-0.1,0-0.3-0.3-0.5-0.1c0.1-0.1,0-0.3,0-0.4c0,0.1-0.1,0.4-0.1,0.4l0,0
							c0.1,0,0,0.3,0,0.4h-0.1c-0.5,1.2-1.1,2.5-1.6,3.7c0.1,0,0.1,0,0.1,0c-0.1,0-0.3,0.1-0.3,0.1s0,0,0,0.1s0,0.1-0.1,0.3l0,0
							c-0.1,0.3-0.3,0.5-0.4,0.8c0.3,0.1,0.3,0.5,0.4,0.8c-0.4,0.1-0.4-0.1-0.7-0.1c-0.1,0.3-0.3,0.7-0.4,1c0,0,0,0,0.1,0
							c0.3,0.5,0.7,0.7,0.8,1.2c-0.1,0.1-0.3,0.1-0.4,0.1c-0.1-0.3-0.4-0.7-0.7-1.1c-0.5,1.2-1.1,2.5-1.6,3.8c0,0.1,0.1,0.1,0.1,0.3
							c0,0.1-0.1,0.1-0.3,0.1c-0.1,0.4-0.4,0.8-0.5,1.4c0.1,0.1,0.3,0.4,0.4,0.5c-0.3,0.1-0.4,0-0.5-0.1c-0.1,0.3-0.3,0.7-0.4,1
							c0.1,0.1,0.4,0.3,0.5,0.5c-0.1,0,0,0.1,0,0.3c-0.1,0-0.1,0.1-0.3,0.1c-0.1-0.1-0.3-0.3-0.5-0.4c-0.8,1.8-1.5,3.6-2.3,5.2v0.1
							c0,0,0,0-0.1,0c-0.1,0.4-0.4,1-0.5,1.4c0.1,0.1,0.3,0.3,0.4,0.5c-0.1,0-0.3,0.1-0.4,0.1c-0.1,0-0.1-0.1-0.3-0.3
							c-0.1,0.3-0.3,0.7-0.4,1c0.3,0.3,0.7,0.7,0.5,1c-0.1-0.3-0.4-0.5-0.5-0.8c-0.1,0.4-0.4,0.8-0.5,1.2c0.3,0.4,0.7,0.5,1,1.1
							c0,0.1,0,0.1-0.1,0.3c-0.3-0.4-1-0.5-0.8-1.1c0-0.1-0.1-0.1-0.1-0.1c-0.5,1.2-1.1,2.5-1.6,3.8c0.1,0.1,0.3,0.4,0.1,0.5
							c-0.1,0-0.3,0-0.4-0.1c-0.1,0.4-0.3,0.8-0.5,1.2c0.1,0.1,0.1,0.4,0.4,0.7c-0.1,0-0.3-0.1-0.5-0.3c-0.1,0.4-0.3,0.8-0.5,1.1
							c0.1,0.1,0.5,0.4,0.5,0.8c-0.4,0-0.5-0.4-0.7-0.5c-0.3,0.5-0.4,1-0.7,1.5c0.3,0.1,0.4,0.7,0.7,0.8c-0.4,0.3-0.8-0.4-0.7-0.8
							c-0.5,1.4-1.1,2.7-1.8,4.1c0.1,0.1,0.1,0.4,0.4,0.5c0,0.1-0.1,0.1-0.1,0.1c-0.1-0.1-0.1-0.3-0.1-0.5h-0.1
							c-0.3,0.5-0.4,1-0.7,1.5c0,0,0.1-0.1,0.3-0.1c0.3,0.1,0.4,0.4,0.5,0.5c0,0.1-0.4-0.1-0.1,0.3c0,0.1-0.3-0.1-0.3,0
							c-0.1,0-0.3-0.3-0.4-0.5c-0.5,1.2-1.1,2.6-1.6,4v0.1l0,0c-13.7,32-27.5,64.6-41.2,98c0,2.7,0,5.4,0,8.1
							c16.8-1.9,33.5-3.7,50.3-5.4c4-9.2,8-18.4,12-27.6c12.8-1,25.7-1.8,38.5-2.5c-0.1,0-0.1-0.1-0.4,0c-0.1-0.3,0.1-0.3,0.1-0.5
							c0.4-0.1,0.1,0.4,0.4,0.4c0,0.1,0,0.1-0.1,0.1c4.5-0.3,9.1-0.5,13.6-0.7c0.1-0.1,0.3-0.3,0.3-0.4c0.3,0,0.3,0.3,0.3,0.4
							c0.7,0,1.2,0,1.9-0.1c0.1-0.5-0.1-1,0-1.8c0.3,0.1,0.3,0.4,0.5,0.4c-0.3,0.5,0.1,1-0.3,1.4c0.5,0,1,0,1.5-0.1
							c0-0.3,0.1-0.7,0.3-0.8c0.1,0.1,0.1,0.5,0.1,0.8c4-0.1,8.1-0.4,12.1-0.5c0-0.1,0-0.1-0.1-0.3c0.3-0.1,0.4,0,0.5,0.3
							c1.2,0,2.5-0.1,3.7-0.1c0-0.1,0-0.1,0-0.3c0.1,0,0.1,0.1,0.3,0.3c0.7,0,1.4,0,2.1-0.1c0.1-0.4-0.3-0.3-0.3-0.7
							c0.4,0,0-0.4,0.3-0.5c-0.3,0-0.4-0.8-0.1-1.2c0.4,0,0.5,0.8,0.3,1c0,0.3,0.4,0,0.5,0.1c-0.1,0.4,0,0.7,0,1.2
							c0.4,0,0.8,0,1.2,0c0-0.1,0-0.1,0-0.3c0.1,0,0.3,0,0.3,0.1c0.7,0,1.2,0,1.9-0.1c0.8,1.6,1.5,3.3,2.3,5.1c0-0.4,0,0.1,0-0.1
							c1.1,0.3,1-1.8,0.8,3.7h-0.1c1.1,0,2.2,3.7,3.3,6.2c0-0.3,0-0.8,0.1-1.1c0.3,0.5,0.8,1.2,0.8,1.8c0,0.3-0.1,0.1-0.3,0
							c1.5,3.4,3.2,6.7,4.7,10c0.7,0,1.4,0.3,2.2,0.3c-0.3-0.3-0.4-0.7-0.5-0.7c0.1,0,0.4,0,0.5,0c0.1,0-0.3,0,0.1,0
							c0,0.4,0,0.3,0,0.5c1.2,0,2.6-0.1,3.8-0.3c0-0.1,0-0.3,0-0.3c0.1,0.1,0.3,0.1,0.3-0.3c0.1,0.1,0.1,0.3,0.3,0.5
							c1.2,0,2.3-0.1,3.6-0.1c0-0.1,0-0.3,0-0.4c0.1-0.1,0.3,0,0.3-0.3c0.1,0,0.1,0,0.1,0.1s0.1,0,0.1,0c0.1,0.1,0.1,0.3,0.1,0.5
							c1.1,0,2.3-0.1,3.4-0.1c-0.3-0.7-0.3-1.6,0.5-1.8c-0.4,0.5,0.1,1.1,0.4,1.8c1.1,0,2.2,0,3.3-0.1c-0.1-0.4-0.1-1,0-1.1
							s0.1,0,0.4-0.1c-0.1,0.4,0.1,0.8,0.3,1.2c1.1,0,2.3-0.1,3.4-0.1c0-0.4,0.1-0.8,0.1-1.1c0.4,0.1,0.5,0.5,0.5,1.1
							c1.2,0,2.3,0,3.6-0.1c0-0.4,0.1-0.8,0.3-1c0.4,0.1,0.5,0.5,0.5,1c1.2,0,2.5,0,3.7,0c-0.1-0.5-0.1-1.1-0.1-1.1
							c0-0.8,0.4,0.7,0.7,1l0,0c1.2,0,2.6,0,3.8,0c-0.3-0.4-0.3-0.5-0.3-1c0.5,0,0.4,0.8,0.3,1c1.5,0,3,0,4.4-0.1
							c0-0.5-0.3-0.7-0.4-1.1s0.3-0.3,0.3-0.7c0.8-0.1,0.8,1.1,0.8,1c0,0.1,0.4,0.4,0.3,0.7c1.2,0,2.5,0,3.6,0
							c-0.3-0.3-0.1-1.1-0.3-1.2c0.4-0.3,1.8,0.8,1.5,1.2c1.8,0,0.8-0.1,6.3-0.1c0-2.5,0-5.1,0-7.6
							C446,456.2,427.9,420.3,427.3,418.9z M318.1,288.1c0-0.1,0.1-0.1,0-0.3c0,0.1,0.1,0.1,0.1,0.3
							C318.2,288.2,318.2,288.1,318.1,288.1z M365.3,396.1c-0.3,0-40.1,0.4-45.8,0.7c0.4-1,0.8-1.9,1.2-2.9c-0.3,0-0.4-0.1-0.3-0.4
							c0.1,0,0.1,0,0.1,0.1s0.1,0.1,0.3,0c3-7.3,5.9-14.6,8.9-21.7c0-0.1,0-0.1,0-0.1h0.1c0.3-0.7,0.7-1.4,1-2.1c-0.1,0,0,0,0,0
							c0-0.1,0,1.5,0,1.5h-0.1c0.8-5.5,1.6-5.1,2.6-7.1c-0.1,0-0.1-0.7,0-0.8c0,0.1,0-0.1,0.1,0c0.4-1,0.8-2.2,1.2-3.2
							c0-0.1,0-0.3-0.1-0.3c0.1-0.3,0.3-0.1,0.3,0c0.5-1.4,1.1-2.7,1.8-4.3c0-0.1-0.1-0.3-0.1-0.4c0.1,0,0.1,0,0.3,0
							c0.1-0.4,0.3-0.8,0.5-1.2c-0.1,0-0.1-0.3-0.3-0.4c0.1,0,0.3,0.1,0.3,0.3c1-2.2,1.8-4.5,2.7-6.7l0,0c0.1-0.3-0.5-1.1-0.1-0.8
							c0.1,0,0.3,0.1,0.4,0.1c0.8-1.8,1.5-3.7,2.3-5.5c0,0.1,1.4,3.3,2.1,4.8c0.1-0.1,6.2,14.6,6.3,14.6c0,0,2.1,4.4,1.9,4.5
							l2.2,5.1c0,0,0,0,0,0.1c1.1,2.7,2.3,5.4,3.4,8.1c0-0.1,0-0.3,0.1-0.3s0.1,0,0.3,0.1v-0.1c0,0,0.1,0,0.1,0.1l0,0
							c0.1,0.1,0,0.7,0,1c-0.1,0-0.1-0.1-0.3-0.3c0.1,0.3,0.3,0.5,0.4,0.8h0.1c0,0.3,0,0.4,0,0.5C359.6,381,365.7,395.7,365.3,396.1
							z"/>
					</g>
					<g>
						<g>
							<path class="st7" d="M617.9,390.3c-0.1,0.3-0.3,0.7-0.4,1c-2.2,0.5-4.7,0.7-7.1,0.1c-8.7-2.3-19.1,11.3-14.6,19
								c1.2,2.1,2.2,4.3,2.1,6.7c-3.4,3.6-13.3,9.1-19,10.7c-1.9-1.1-3.6-3-4.7-4.9c-1.2-2.2-3.7-3.4-6.6-4
								c-3.7,1.1-7.8,1.6-12.1,1.8c-2.6,1.2-4.5,3.2-5.2,5.5c-0.5,2.3-1.6,4.5-3.4,6.2c-1.8,0-4.3-0.3-6.7-1v0.1
								c-0.1,0-0.3,0-0.3-0.1c-4.8-1.1-10-3-13.5-4.4c-0.4-2.5-0.7-4.9-0.1-7.3c0.1-0.5,0.3-1.2,0.3-1.8c0,0.1-0.3,0.1-0.3,0.4
								c-0.3-0.1,0.3-1-0.3-1c0.1-0.3,0.4,0.1,0.4,0.3c0-1.5-0.4-3-1.1-4.5c0,0,0,0-0.1,0c0,0,0,0,0-0.1c-0.3-0.5-0.7-1.1-1.1-1.8
								c-2.2-1.6-4.3-3.3-6.2-5.2c-3.7-2.1-8-2.7-10.9-1c-1.2,0.7-2.6,1.2-4,1.5c0,0.3-0.4,0.7-0.4,0.8c-0.3,0-0.1-0.4,0-0.8
								c-0.7,0.1-1.5,0.1-2.2,0.1c0,0,0,0,0,0.1c0,0,0,0,0-0.1c-0.1,0-0.4,0-0.5,0c-0.4-0.5-1-1.2-1.5-1.9c-0.1,0-0.3,0-0.4,0
								c0.1-0.3-0.1-0.5-0.3-0.7c0-0.1,0-0.1,0-0.3c-3.3-4.7-7-11.5-8.1-15c0.8-2.2,2.5-3.8,4.5-5.1c0-0.1,0-0.3,0.1-0.4
								c0.1,0,0.1,0,0.3,0c0,0.1-0.1,0.1-0.3,0.1c0,0,0,0.1,0.1,0.1s0.1-0.1,0.3-0.1c0.3-0.1,0.5-0.4,0.8-0.7c0-0.1-0.1-0.4-0.1-0.7
								c0.3,0.3,0.3-0.3,0.4-0.4l0,0c0.1,0,0.3,0.3,0.4,0.5c0.5-0.4,1-1,1.4-1.5c-0.1-0.3,0.1-0.7,0.1-0.8c0.1,0.1,0.1,0.3,0.3,0.3
								c0-0.1,0.1-0.1,0.1-0.3c-0.1-0.1-0.1-0.1-0.1-0.4c0.1,0,0.3,0,0.3,0.1c2.2-4,2.5-9.5,0.4-13.7c-0.3,0-0.3,0.3-0.5,0.3
								c0.3-0.4-0.1-0.1-0.3-0.3c0-0.3,0.3-0.4,0.4-0.5c0,0,0-0.1-0.1-0.1c0,0.1-0.1,0.1-0.1,0.3c-0.4,0,0.1-0.5-0.1-0.5l0,0
								c-1.4-2.2-3.4-4-6.2-4.8c0,0,0,0-0.1,0c0,0,0,0-0.1-0.1c-0.1,0-0.1-0.1-0.3-0.1c-2.6-0.7-5.8-2.9-6.3-4
								c0-0.4,0.1-0.8,0.1-1.4l0,0c0-0.1,0-0.1,0-0.3c0.1-0.5,0.1-1.2,0.3-2.1c0,0,0,0-0.1,0h0.1c0.3-1.4,0.5-2.9,1-4.4
								c-0.1,0-0.1-1.1,0.3-1c0.8-3,1.6-6.2,2.5-8.5c0-0.1,0-0.1,0-0.3c0.1,0,0.1,0,0.1,0c0.3-0.7,0.5-1.2,0.7-1.8
								c2.3-1,5.1-1.1,7.8-0.4c2.9,0.7,5.9-0.5,8.5-2.7c0.7-1.5,1.5-3,2.3-4.5c-0.1,0.1-0.3,0.1-0.4,0.1c0-0.1-0.1-0.1-0.1-0.3
								c0.1-0.3,0.4-0.1,0.4-0.3c0.1,0,0.1,0,0.3,0.1c0.1-0.1,0-0.3,0-0.4c0.3,0,0.1,0,0.3-0.1c0,0,0,0,0,0.1
								c0.7-1.2,1.5-2.3,2.3-3.6l0,0c0.1,0,0.1-0.1,0.3-0.1c0.4-0.5,0.8-1.1,1.4-1.6c0.1-1,0.3-1.9,0.3-2.7
								c-0.3,0.3-0.4,0.4-0.1,0.8c-0.3-0.1-0.5-0.1-0.7-0.5c0.3-0.1,0.1,0,0.4-0.1c0.1-0.1,0.1-0.5-0.1-0.3c0-0.3,0.3-0.3,0.4-0.4
								c-0.1-0.8-0.3-1.6-0.7-2.3c-0.3-0.5-0.5-1-0.7-1.5c-0.1,0-0.3,0.1-0.4,0.1c-0.1-0.1,0.1-0.3,0-0.4c0.1,0,0.3,0,0.3,0
								c-0.4-1.5-0.5-3-0.8-4.5c-0.1,0.1-0.3,0.1-0.4,0.3c-0.1,0-0.1-0.1-0.3-0.3c0-0.3,0.4,0,0.3-0.3c0.1-0.1,0.3-0.1,0.4-0.1
								c0-0.1,0-0.3,0-0.4c1.9-1.6,5.2-3.7,8.7-5.8c0.1-0.1,0.1-0.1,0.3-0.3l0,0c0.5-0.3,1.2-0.7,1.8-1c-0.1-0.3,0.8-0.8,1-1
								c0,0.3-0.1,0.4-0.4,0.7c2.6-1.4,4.9-2.5,6.7-3c0.8,0.3,1.6,1,2.6,1.8c0.3-0.3,0.4-0.5,0.7-0.5c0.1,0.3-0.4,0.3-0.1,0.5
								c-0.1,0-0.3,0.1-0.4,0.3c0.7,0.5,1.2,1.4,1.8,2.1h0.1c0,0.1,0,0.1,0,0.1c0.1,0.3,0.4,0.5,0.5,0.8c0.3,0.5,0.8,1,1.2,1.5
								c0.1-0.1,0.1-0.1,0.3-0.3c-0.1,0-0.3,0.1-0.3,0.3c0.4,0.3,0.7,0.5,1.1,0.8c0.5-0.1,0.8-0.7,1.2-1c0.1,0.5-0.4,1-0.8,1.2
								c0.1,0,0.1,0.1,0.3,0.1c1.8-0.4,3.6-0.8,5.5-1c0,0,0-0.1,0.1-0.1l0.1,0.1c0.3,0,0.5,0,0.8-0.1c-0.1,0-0.3-0.3-0.3-0.4
								c0.1-0.1,0.4-0.3,0.4-0.1c0.1-0.1-0.1-0.1-0.1-0.3c0.1-0.1,0.3,0,0.3-0.1c-0.1,0.4,0.1,0.1,0.3,0c0.1,0.3,0,0.5,0.4,0.3
								c0,0.3-0.3,0.3-0.4,0.4c-0.1-0.1,0-0.1,0-0.3c-0.1,0.1-0.1,0.1-0.1,0.4c-0.1-0.1-0.4-0.3-0.4,0.1c0.8-0.1,1.6-0.1,2.5-0.1
								c0.1-0.3,0.4-0.4,0.8-0.7c-0.1,0.4-0.5,0.1,0,0.5c-0.1,0-0.3,0.1-0.4,0.1c0.7,0,1.4,0,2.1,0c0,0,0,0,0-0.1
								c0.1,0,0.3,0,0.3,0.1c0.4,0,0.8,0,1.2,0c1.4,0,2.9,0.1,4.1,0.1c0.5-0.4,1-0.7,1.4-1.1c-0.3,0.1-0.5,0.1-0.8,0.3
								c-0.1-0.1,0-0.3-0.1-0.4c0.3,0.1,0.4-0.1,0.5-0.3c0,0.1,0.1,0,0.3,0v0.1c0.3-0.3-0.3-0.4-0.1-0.7c0.1-0.1,0.3,0.1,0.4,0
								c0,0.3-0.3-0.1-0.4,0.1c0.1-0.1,0.3,0.3,0.4,0.3c0,0.1-0.1,0.3-0.1,0.3c0.8-1,1.5-1.9,1.9-3.2c0.3-1,0.7-2.1,1.2-2.9
								c-0.1,0-0.1-0.4,0.1-0.4c0,0,0,0.1,0.1,0.1l0.1-0.1c0,0,0,0,0-0.1c0.7-1.1,1.5-2.1,2.3-2.6c6.9,0.7,16.2,3.4,20.1,5.4
								c0.5,1.8,0.8,4.8,0.3,7.3c-2.1,8,12.1,18.6,19,14.6c2.2-1.2,4.5-1.8,6.9-1.6c3,3.6,8.1,11.5,10,17.5
								c8.8,0.3,17.5,0.7,26.8,1.1c-8-57.6-51.9-81.5-93-82c0.1,0.4-0.7,0.5-0.8,1c-0.3,0,0-0.3-0.3-0.5c0.3,0,0.8-0.4,1.1-0.4
								c-0.5,0-1.1,0-1.6,0c-1.8,0-3.6,0-5.4,0.1v0.1c-0.1,0-0.1-0.1-0.3-0.1c-1.4,0.1-2.7,0.1-4,0.3c0,0.1,0,0.1,0.1,0.3
								c-0.4,0.3-0.4,0.4-0.8,0.5c-0.1,0-0.1-0.1-0.3-0.3c0.4-0.1,0.4-0.3,0.5-0.5c-0.7,0-1.4,0.1-2.2,0.3c0,0,0,0,0.1,0.1
								c-0.1,0-0.4,0-0.5,0c-0.5,0-1.1,0.1-1.6,0.1v0.1c-0.1,0-0.1,0-0.3,0c-1.4,0.1-2.7,0.4-4.1,0.7c0.1,0.1,0,0.4,0.3,0.4
								c-0.5,0.4-0.8,0.3-1.2,0.5c-0.1-0.1-0.3-0.4-0.3-0.5c0.1-0.1,0.1-0.1,0.3-0.1c-1.2,0.3-2.5,0.4-3.7,0.7
								c-0.1,0.3-0.4,0.5-0.4,0.5s0,0.1-0.1,0.1c0.1,0.1,0.3,0.1,0.4,0.1c-0.1,0.3-0.7,0.3-0.8,0.5c-0.1,0-0.4-0.1-0.3-0.4
								c0.3,0.4,0.1-0.3,0.5-0.1c0.1-0.3,0.3-0.4,0.4-0.5c-0.8,0.1-1.6,0.4-2.6,0.7c-0.1,0-0.1,0.1-0.3,0.1c0,0,0,0,0-0.1
								c-0.3,0.1-0.7,0.1-1,0.3l0.1,0.1c0.1,0.1-0.3,0.1-0.3,0c-0.1,0,0,0,0,0.1c-0.1,0.1,0-0.1-0.1-0.1c-1.1,0.3-2.1,0.5-3.2,0.8
								l0,0c-0.1,0-0.1,0.1-0.3,0.1c0,0,0,0-0.1-0.1c-0.1,0-0.3,0-0.4,0.1c0,0.1,0,0.1,0,0.3h-0.1c0,0,0,0-0.1,0v-0.1
								c-1.2,0.4-2.6,0.8-3.8,1.2c-0.1,0.3-1,0.4-1,0.3c-0.4,0.1-0.8,0.3-1.2,0.4c0,0.3-0.1,0.3-0.3,0.1c-1.6,0.7-3.4,1.4-5.1,2.1
								c-0.1,0.3-1.2,0.8-1.4,0.5c-2.3,1.1-4.7,2.2-6.9,3.4l-0.1,0.1l0,0c-0.7,0.4-1.5,0.8-2.2,1.2l0,0h-0.1
								c-0.3,0.1-0.5,0.3-0.8,0.4c-0.1,0.1-0.5,0.4-0.5,0.4c-0.4,0.3-0.7,0.4-1.1,0.7c0,0,0,0.1-0.1,0c-0.1,0.1-0.3,0.1-0.4,0.3
								c0,0.3-1.1,0.7-1.1,0.7c-0.5,0.4-1.2,0.8-1.8,1.2c0,0-1,0.8-1,0.7c-2.7,1.9-5.4,4-8,6.2c0.1,0-1.4,1.5-1.5,1.2
								c-0.3,0.3-0.5,0.5-0.8,0.8c0,0,0,0,0,0.1c-0.1,0-0.1,0-0.1,0c-0.3,0.3-0.5,0.5-0.8,0.7c0,0.4-0.3,0.8-0.7,0.7
								c-0.1,0.3-0.3,0.3-0.4,0.3c-0.8,0.8-1.6,1.6-2.3,2.3l-1,1.1c-1,1-1.8,2.1-2.7,3c0.1,0,0,0.3-0.1,0.3c-0.3,0.3-0.5,0.7-0.8,1
								c-0.8,1-1.6,2.1-2.5,3.2l0.1-0.1c0,0.3-0.1,0.3-0.1,0.1c-0.1,0.3-0.4,0.4-0.5,0.7c0,0.1,0,0.1,0,0.3
								c-0.1,0.1-0.3,0.1-0.3,0.1c-0.4,0.5-0.8,1.2-1.2,1.8c0.5-0.1-0.1,0.4-0.1,0.1c-0.8,1.1-1.6,2.3-2.3,3.6
								c0.1,0.1-0.1,0.8-0.5,1c-0.4,0.7-0.8,1.2-1.1,1.9c0.3-0.3,0.5,0.3-0.1,0.3c-1.4,2.5-2.7,5.1-4,7.8c0.1,0.1-0.1,0.5-0.4,0.7
								c-0.3,0.7-0.5,1.4-1,2.1c0,0,0.1,0.3-0.1,0.4v0.1l0,0c0,0.1,0,0.1,0,0.1c-0.3,0.7-0.5,1.2-0.8,1.9c0.1,0,0,0.3-0.1,0.3
								c-1.2,3.3-2.5,6.7-3.4,10.4c0.1,0,0,0.5-0.1,0.4c-2.2,8.1-3.4,16.9-3.8,26.4c0.1,0.3,0.1,1,0,0.8c0,1.2-0.1,2.5-0.1,3.7
								c0,6.9,0.5,13.5,1.6,19.8c0.1-0.1,0.1-0.1,0.4-0.1c0,0.3-0.3,0.4-0.3,0.5c0.3,1.4,0.4,2.7,0.7,4.1c0,0.1,0.1,0.1,0.4,0
								c-0.1,0.1-0.3,0.4-0.3,0.7c0.5,2.3,1.1,4.7,1.8,7c0-0.3,0.1-0.7,0.3-1c0.4,0.3,0,0.8,0.3,1.2c-0.1,0-0.3,0-0.4,0.1
								c0.8,3,1.8,5.9,2.9,8.8h0.1c0,0.1,0.1,0.4,0.1,0.7c4.5,11.7,11,21.9,18.7,30.4c0-0.1,0-0.3,0.1-0.4c0.3,0.3,0.4,0.5,0.4,1
								c2.7,2.9,5.5,5.6,8.5,8.2c0.1-0.1,0.3-0.3,0.5-0.3c-0.1,0.1,0,0.5,0,0.8c1.4,1.2,2.7,2.3,4.3,3.4c0-0.1,0-0.1,0-0.3
								c0,0.1,0,0.3,0.1,0.3c3.4,2.6,7,4.9,10.7,7.1c0-0.1,0-0.3-0.1-0.4c0.3-0.3,0.3-0.3,0.4-0.7c0.3,0.3,0.1,0.8,0.3,1.4
								c15.9,9.1,33.9,14.2,51.9,15.3c19.7,1.2,39.7-2.1,56.5-11.8c0-0.1,0-0.3,0-0.3c0.1,0,0.3,0.1,0.3,0.1c1.5-1,3-1.8,4.5-2.9
								c0-0.1,0.1-0.4,0.1-0.5c0,0.1,0,0.3,0,0.4c0.3-0.3,0.7-0.5,1-0.7c0,0-0.1-0.1-0.3-0.1c0.1-0.3,0.3,0,0.4-0.1l0,0
								c1.5-1.1,2.9-2.2,4.3-3.3c-0.1-0.1,0.3-0.1,0.1-0.3c0,0,0.1,0,0.1,0.1c0.3-0.3,0.7-0.5,1-0.8c0,0,0,0-0.1,0
								c0-0.1,0.3-0.4,0-0.4c0.1-0.1,0.3,0.1,0.4,0.3c0.3-0.3,0.7-0.5,1-1c0-0.1-0.1-0.1-0.3-0.3c0-0.1,0.1-0.1,0.3-0.1
								c0-0.1-0.1-0.1-0.1-0.3c-0.1,0-0.1,0.1-0.1,0.1c-0.1,0.1,0.1-0.3,0.1-0.4c0.1,0,0,0.1,0.3,0.1c-0.4,0.1,0.1,0.4-0.1,0.7
								c0,0,0,0.1,0.1,0.1c0.3-0.3,0.5-0.5,0.8-0.8c0-0.1,0-0.3,0-0.4c0.1,0,0.1,0.1,0.1,0.3l0,0c0-0.1,0-0.4,0-0.5h0.1
								c0-0.1-0.1-0.1-0.1-0.3c0.1-0.1,0.1,0.3,0.1,0c0,0.1,0,0.1,0.3,0c0,0.1,0,0.1,0,0.3c0.1-0.1,0.4-0.4,0.5-0.5
								c0-0.1,0.1-0.4,0-0.5c0-0.1,0.1-0.1,0.3,0c0-0.1-0.1-0.1-0.1-0.3c0.3,0,0.3,0.3,0.3,0.4c0.3-0.3,0.5-0.5,0.8-0.8
								c0-0.1,0-0.5-0.1-0.4c-0.1-0.1,0.1-0.3,0.1-0.5h0.1c0.1,0.1,0.1,0.3,0.1,0.5c0.3-0.3,0.4-0.5,0.7-0.8l0,0c0-0.4,0-0.7,0-1
								c0.3-0.1,0.1,0.3,0.4,0.1c0,0.1,0,0.3,0,0.3c0.3-0.3,0.5-0.5,0.8-1l0,0c0-0.1,0-0.1,0.1-0.1l0.1-0.1c-0.1,0-0.1,0-0.3,0
								c0.3-0.3,0-0.5-0.1-0.7c0.3-0.1,0.1-0.3,0-0.4c0.3,0,0.1,0.4,0.4,0.4c-0.1,0.3-0.1,0.4,0,0.7c0.3-0.4,0.7-0.7,1-1.1
								c0-0.1-0.1-0.4-0.1-0.3c-0.1,0,0.1-0.1,0-0.3c0.1,0,0.1,0,0.3,0c0,0.1,0,0.1,0,0.4c0.3-0.3,0.5-0.7,0.7-1l0,0
								c0-0.3,0.3-0.3,0.3-0.7c0.1,0,0.1,0,0.1,0.1c0.3-0.3,0.5-0.7,0.8-1c-0.1,0-0.1-0.1-0.1-0.3c0.1,0,0.1,0,0.3,0l0,0
								c0-0.1-0.3-0.1-0.1-0.4c0,0-0.1,0-0.1,0.1c-0.1-0.1,0-0.3,0-0.5c0.1,0,0.4-0.3,0.1-0.3c0-0.1,0-0.3,0.3-0.3
								c-0.1,0.3,0,0.3,0,0.7c0,0,0.1,0.1,0.3,0.3c0.4-0.5,0.7-1,1-1.5c-0.1,0-0.3,0-0.3,0.1c-0.1-0.1,0-0.5,0-0.8
								c0.3,0.1,0.3-0.3,0.7-0.1c0,0.1-0.1,0.1-0.1,0.3c0,0.1,0.1,0.1,0.1,0c0.1-0.1,0.3-0.4,0.4-0.5l0,0l0,0
								c1.2-1.8,2.3-3.7,3.4-5.8c-0.1-0.1,0-0.4,0.1-0.4c-0.1-0.1-0.3-0.1-0.1-0.4c0.1,0,0.1,0,0.1,0c0.1,0.1,0.1,0.3,0.1,0.5
								c0.3-0.5,0.5-1.1,0.8-1.6c0.4-0.8,0.8-1.8,1.2-2.6c0,0,0-0.1-0.1-0.1c0,0,0-0.1,0-0.3c0.1,0,0.1,0,0.1,0c0,0.1,0,0,0,0
								c-0.1,0-0.1,0.1,0,0.1c0-0.1,0-0.1,0.1-0.3c0-0.1-0.1-0.4,0-0.5c0.1,0,0.1,0.1,0.3,0.3c4-8.8,6.9-19.1,8.2-31.1
								C636.3,391.4,627.1,390.9,617.9,390.3z"/>
						</g>
					</g>
					<g>
						<circle class="st7" cx="551.5" cy="366.2" r="18.6"/>
					</g>
				</g>
				<g>
					<g>
						<path class="st7" d="M419.2,48.3c1.2,0.5,2.2,1.2,3.2,2.1c1,0.8,1.5,1.8,2.1,3c0.5,1.1,0.8,2.3,0.8,3.7v49.1
							c0,0.4-0.1,0.8-0.4,1.1c-0.3,0.3-0.7,0.4-1.1,0.4h-11.7c-0.4,0-0.8-0.1-1.1-0.4c-0.3-0.3-0.4-0.7-0.4-1.1v-45h-9.4V106
							c0,0.4-0.1,0.8-0.4,1.1c-0.3,0.3-0.7,0.4-1.1,0.4h-10.6c-0.4,0-0.8-0.1-1.1-0.4s-0.4-0.7-0.4-1.1V61.2h-9.3V106
							c0,1-0.5,1.5-1.6,1.5h-11.5c-1.1,0-1.6-0.5-1.6-1.5V49.1c0-1,0.5-1.5,1.6-1.5h50.6C416.7,47.5,418,47.7,419.2,48.3z"/>
					</g>
					<g>
						<path class="st7" d="M476,93.1c0.4,0,0.8,0.1,1.1,0.4c0.3,0.3,0.4,0.7,0.4,1.1v11.3c0,0.4-0.1,0.8-0.4,1.1
							c-0.3,0.3-0.7,0.4-1.1,0.4h-39.9c-1.1,0-1.6-0.5-1.6-1.6V49.1c0-1.1,0.5-1.6,1.6-1.6h12.2c1.1,0,1.6,0.5,1.6,1.6v42.3
							c0,0.4,0.1,0.8,0.5,1.1c0.3,0.3,0.7,0.4,1.2,0.4h24.2v0.2H476z"/>
					</g>
					<g>
						<path class="st7" d="M537.4,47.5c0.4,0,0.8,0.1,1.2,0.4c0.3,0.3,0.5,0.7,0.5,1.1v56.9c0,0.4-0.1,0.8-0.5,1.1
							c-0.3,0.3-0.7,0.4-1.2,0.4H525c-0.4,0-0.8-0.1-1.2-0.4c-0.3-0.3-0.5-0.7-0.5-1.1V86.2c0-0.4-0.1-0.8-0.4-1.1
							c-0.3-0.3-0.7-0.4-1.1-0.4h-17.6c-0.4,0-0.8,0.1-1.2,0.4c-0.3,0.3-0.5,0.7-0.5,1.1V106c0,1.1-0.5,1.6-1.6,1.6h-12.2
							c-1.1,0-1.6-0.5-1.6-1.6V49.1c0-1.1,0.5-1.6,1.6-1.6h12.2c1.1,0,1.6,0.5,1.6,1.6v19.2c0,1.1,0.5,1.6,1.6,1.6h17.6
							c0.4,0,0.8-0.1,1.1-0.4c0.3-0.3,0.4-0.7,0.4-1.1V49.3c0-0.4,0.1-0.8,0.5-1.1c0.3-0.3,0.7-0.4,1.2-0.4h12.5V47.5z"/>
					</g>
				</g>
			</g>
			<g>
				<path class="st8" d="M350.6,712.8c-0.8-2.4-1.3-3.9-1.3-11.6v-14.8c0-8.8-3-12-9.7-12h-5.1v38.4h-14.8v-94.3h22.4
					c15.4,0,22,7.1,22,21.7v7.4c0,9.7-3.1,15.9-9.7,19v0.3c7.4,3.1,9.8,10.1,9.8,19.9v14.5c0,4.6,0.1,7.9,1.6,11.4L350.6,712.8
					L350.6,712.8z M334.4,632v29h5.8c5.5,0,8.9-2.4,8.9-10v-9.3c0-6.7-2.3-9.7-7.5-9.7H334.4z"/>
				<path class="st8" d="M402,618.5v72.7c0,6.7,3,9.2,7.7,9.2s7.7-2.4,7.7-9.2v-72.7h14v71.8c0,15.1-7.5,23.7-22.1,23.7
					c-14.5,0-22.1-8.6-22.1-23.7v-71.8H402z"/>
				<path class="st8" d="M470.5,712.8h-14.8v-94.3h14.8v40.4h16.8v-40.4h15.1v94.3h-15.1v-40.4h-16.8V712.8z"/>
				<path class="st8" d="M558.2,712.8c-0.8-2.4-1.3-3.9-1.3-11.6v-14.8c0-8.8-3-12-9.7-12h-5.1v38.4h-14.8v-94.3h22.4
					c15.4,0,22,7.1,22,21.7v7.4c0,9.7-3.1,15.9-9.7,19v0.3c7.4,3.1,9.8,10.1,9.8,19.9v14.5c0,4.6,0.1,7.9,1.6,11.4L558.2,712.8
					L558.2,712.8z M542.1,632v29h5.8c5.5,0,8.9-2.4,8.9-10v-9.3c0-6.7-2.3-9.7-7.5-9.7H542.1z"/>
			</g>
		</g>
	</g>
</g>
</svg>
